<?xml version="1.0" encoding="utf-8"?>
<!-- Generator: Adobe Illustrator 16.0.0, SVG Export Plug-In . SVG Version: 6.00 Build 0)  -->
<!DOCTYPE svg PUBLIC "-//W3C//DTD SVG 1.1//EN" "http://www.w3.org/Graphics/SVG/1.1/DTD/svg11.dtd">
<svg version="1.1" id="Layer_1" xmlns="http://www.w3.org/2000/svg" xmlns:xlink="http://www.w3.org/1999/xlink" x="0px" y="0px"
	 width="75px" height="75px" viewBox="0 0 75 75" enable-background="new 0 0 75 75" xml:space="preserve">
<g>
	<path fill-rule="evenodd" clip-rule="evenodd" fill="#FFFFFF" d="M175.735,224.746c0-5.93,0-11.861,0-17.826
		c3.403,0,6.774,0,10.177,0c0,0.815,0,1.625,0,2.489c-2.508,0-5.031,0-7.589,0c0,4.276,0,8.499,0,12.754c4.219,0,8.443,0,12.7,0
		c0-2.521,0-5.029,0-7.582c0.857,0,1.678,0,2.571,0c0,3.381,0,6.772,0,10.165C187.643,224.746,181.688,224.746,175.735,224.746z"/>
	<path fill-rule="evenodd" clip-rule="evenodd" fill="#FFFFFF" d="M196.146,210.663c-0.755-0.729-1.509-1.456-2.318-2.236
		c-2.186,2.227-4.351,4.435-6.49,6.614c-0.643-0.653-1.221-1.24-1.854-1.885c2.153-2.096,4.375-4.263,6.62-6.45
		c-0.832-0.862-1.559-1.618-2.286-2.372c2.11,0,4.221,0,6.328,0C196.146,206.444,196.146,208.553,196.146,210.663z"/>
</g>
<g>
	<path fill-rule="evenodd" clip-rule="evenodd" fill="#FFFFFF" d="M9.652,65.83c0-16.437,0-32.878,0-49.412
		c9.432,0,18.778,0,28.208,0c0,2.26,0,4.504,0,6.9c-6.951,0-13.944,0-21.035,0c0,11.854,0,23.558,0,35.352
		c11.694,0,23.404,0,35.204,0c0-6.986,0-13.94,0-21.016c2.377,0,4.65,0,7.127,0c0,9.372,0,18.772,0,28.176
		C42.658,65.83,26.154,65.83,9.652,65.83z"/>
	<path fill-rule="evenodd" clip-rule="evenodd" fill="#FFFFFF" d="M66.229,26.793c-2.093-2.019-4.182-4.036-6.426-6.199
		c-6.059,6.172-12.06,12.292-17.99,18.334c-1.781-1.811-3.384-3.438-5.138-5.225c5.969-5.809,12.127-11.815,18.35-17.879
		c-2.306-2.39-4.32-4.485-6.337-6.575c5.85,0,11.699,0,17.541,0C66.229,15.1,66.229,20.944,66.229,26.793z"/>
</g>
</svg>
