<svg xmlns="http://www.w3.org/2000/svg" viewBox="0 0 213.64 54.08"><defs><style>.cls-1{fill:#353535;}</style></defs><title>conrad</title><g id="Layer_2" data-name="Layer 2"><g id="Layer_1-2" data-name="Layer 1"><path class="cls-1" d="M208.94,3.46a2.33,2.33,0,0,1,2.36-2.33,2.28,2.28,0,0,1,2.35,2.33,2.32,2.32,0,0,1-2.35,2.32A2.28,2.28,0,0,1,208.94,3.46Zm2.36,2a2,2,0,0,0,2-2,2,2,0,0,0-2-2,2,2,0,0,0-2,2A2,2,0,0,0,211.29,5.5ZM211,3.66v.27c0,.58,0,.61.05.65s.08,0,.23,0,.05,0,.06,0a.06.06,0,0,1-.07.05h-1a0,0,0,0,1-.05,0s0,0,.07,0c.21,0,.24,0,.26-.18s0-.3,0-.71v-.6c0-.39,0-.56,0-.71s-.1-.18-.28-.18a0,0,0,0,1-.05-.05s0,0,.07,0h.93a1.18,1.18,0,0,1,.74.15.54.54,0,0,1,.23.46c0,.23-.08.45-.45.78.32.37.56.68.75.89s.21.21.27.21.06,0,.06.05,0,0-.07,0h-.14a1,1,0,0,1-.43-.07,1.75,1.75,0,0,1-.46-.5c-.14-.18-.27-.4-.34-.5Zm0-.24a.48.48,0,0,0,.24.07.48.48,0,0,0,.26-.05c.14-.08.2-.25.2-.5a.54.54,0,0,0-.54-.61.37.37,0,0,0-.15,0Z"/><path class="cls-1" d="M161.75,8.11,154.94,25.5a4.11,4.11,0,0,0-.37,1.44c0,.75.54,1.25,1.7,1.7h-8.79c1.7-.75,2.19-1.2,2.81-2.61L161.75.17,173.21,26c.62,1.41,1.11,1.86,2.81,2.61h-8.79c1.16-.45,1.7-.95,1.7-1.7a3.89,3.89,0,0,0-.38-1.44Z"/><path class="cls-1" d="M15.7,3C9.23,3,5.06,7.5,5.06,14.34s4,11.45,10.56,11.45a11.2,11.2,0,0,0,9-4.21l-.5,5.73c-4.26,1.27-6.21,1.64-9.23,1.64C5.65,28.95,0,22.51,0,14.55,0,6.26,6.22.25,14.83.25a67.75,67.75,0,0,1,7.29.66A1.65,1.65,0,0,0,23.69,0V6.63S21.72,3,15.7,3"/><path class="cls-1" d="M49.71,25.83c-5.09,0-9-5-9-11.5S44.66,3.19,50,3.19s9,4.42,9,11.27c0,6.67-3.9,11.38-9.36,11.38M49.89.24C41.68.24,36,6,36,14.38s6,14.57,13.84,14.57,13.78-6.3,13.78-14.57S58,.24,49.89.24"/><path class="cls-1" d="M97.17,20.38V5.46c0-3-.29-3.47-2.4-4.17H103c-1.91.91-2,1.25-2,4.23V29.2L79.82,9.14V24.62c0,2.7.33,3.2,2.61,4H73.65c1.69-.61,2.34-1.33,2.34-4V.22Z"/><path class="cls-1" d="M134.07,8a6.4,6.4,0,0,1-4.95,6.62l5.33,6.45c2.38,3,4.83,6,7.19,7.53h-5.93L124.05,14.31c2.82-.58,5.42-2.27,5.42-5.52,0-2.57-2.07-4.66-5.17-4.66a10,10,0,0,0-2.62.33V22.84c0,1.91,0,5.06,2.56,5.81h-9c2.67-.75,2.48-3.94,2.48-5.81V7.22c0-1.91.33-5.14-2.05-5.84h9.72c3.63,0,8.63,1.36,8.63,6.66"/><path class="cls-1" d="M194.16,25.46h-2c-1.7,0-2.27-.66-2.27-2.61V4.06h3.93c6.83,0,11,4.53,11,11.07s-4.39,10.33-10.64,10.33M209.69,15c0-9.22-6.89-13.65-15.87-13.65H183.53c2.33.82,2.44,1.42,2.44,4.07V24.66c0,2.66-.6,3.36-2.44,4h8.82c10.67,0,17.35-4.86,17.35-13.61"/><path class="cls-1" d="M61.62,52.26c0,.94.18,1.26.42,1.34a1.93,1.93,0,0,0,.63.08c.13,0,.21,0,.21.1s-.11.12-.28.12c-.79,0-1.27,0-1.5,0s-.68,0-1.31,0c-.16,0-.27,0-.27-.12s.07-.1.19-.1a2.15,2.15,0,0,0,.54-.06c.31-.1.36-.45.37-1.5L60.74,45c0-.24,0-.41.16-.41s.24.16.45.37,2,2.13,3.75,3.88c.82.82,2.45,2.56,2.66,2.76h.06l-.12-5.43c0-.74-.12-1-.41-1.09a2,2,0,0,0-.64-.07c-.15,0-.19,0-.19-.11s.13-.11.31-.11c.63,0,1.21,0,1.46,0s.59,0,1.18,0c.16,0,.28,0,.28.11s-.07.11-.22.11a1.33,1.33,0,0,0-.36,0c-.34.1-.44.35-.45,1l-.13,7.63c0,.27,0,.38-.16.38s-.28-.13-.41-.27c-.76-.73-2.31-2.31-3.57-3.55s-2.66-2.82-2.88-3h0Z"/><path class="cls-1" d="M74.81,48.27c0-1.84,0-2.18,0-2.56s-.12-.6-.52-.69a2.5,2.5,0,0,0-.47,0c-.13,0-.21,0-.21-.11s.08-.11.27-.11h1l.76,0c.39,0,2.79,0,3,0a4.85,4.85,0,0,0,.52-.07,1.12,1.12,0,0,1,.19,0c.06,0,.07,0,.07.11a7.74,7.74,0,0,0-.1.79c0,.12,0,.65-.06.8s0,.13-.12.13-.11-.06-.11-.17a1.3,1.3,0,0,0-.07-.44c-.08-.22-.21-.36-.81-.44-.21,0-1.48,0-1.72,0-.06,0-.08,0-.08.12v3.06c0,.08,0,.13.08.13.27,0,1.66,0,1.93,0a.84.84,0,0,0,.58-.18c.08-.1.13-.16.19-.16s.08,0,.08.1,0,.27-.1.88c0,.24,0,.73,0,.81s0,.23-.11.23a.1.1,0,0,1-.11-.11,3.19,3.19,0,0,0,0-.44c-.06-.24-.23-.42-.68-.47-.23,0-1.43,0-1.72,0-.06,0-.07,0-.07.12v1c0,.41,0,1.52,0,1.87,0,.83.22,1,1.45,1a3.06,3.06,0,0,0,1.14-.15c.31-.15.46-.4.54-.89,0-.13,0-.18.13-.18s.1.1.1.22a9.48,9.48,0,0,1-.16,1.34c-.08.31-.19.31-.65.31-.91,0-1.57,0-2.09,0s-.89,0-1.26,0h-.69l-.83,0c-.16,0-.24,0-.24-.12s0-.1.19-.1a2,2,0,0,0,.44,0c.24,0,.3-.31.35-.67.06-.51.06-1.46.06-2.58Z"/><path class="cls-1" d="M84.28,46a1.76,1.76,0,0,0-.45-.86,1.07,1.07,0,0,0-.48-.11c-.12,0-.19,0-.19-.11s.1-.11.27-.11c.63,0,1.29,0,1.4,0s.64,0,1.34,0q.25,0,.25.11c0,.1-.1.11-.22.11a.64.64,0,0,0-.3,0c-.11,0-.13.13-.13.27A7.93,7.93,0,0,0,86,46.41c.21.8,1.33,4.46,1.55,5.14h0L90,45.25c.12-.34.21-.44.3-.44s.19.18.35.57l2.51,6.08h0c.22-.81,1.18-4,1.61-5.42a2.57,2.57,0,0,0,.12-.7c0-.19-.11-.36-.58-.36-.12,0-.21,0-.21-.11s.1-.11.28-.11c.64,0,1.15,0,1.26,0s.6,0,1,0c.13,0,.22,0,.22.1s-.06.12-.17.12a1.32,1.32,0,0,0-.42.06c-.29.11-.42.59-.68,1.28-.56,1.52-1.83,5.37-2.42,7.18-.13.42-.19.57-.35.57s-.19-.15-.37-.59l-2.51-6.06h0c-.23.62-1.84,4.9-2.36,6-.23.5-.29.64-.44.64s-.17-.13-.28-.45Z"/><path class="cls-1" d="M108.29,50.78a2.57,2.57,0,0,0-.28-1.27c-.09-.19-1.7-2.85-2.13-3.48a3,3,0,0,0-.83-.88,1.23,1.23,0,0,0-.51-.16c-.1,0-.18,0-.18-.11s.08-.11.23-.11l1.52,0c.25,0,.75,0,1.29,0,.12,0,.18,0,.18.11s-.08.08-.27.13a.22.22,0,0,0-.17.22,1.11,1.11,0,0,0,.15.41c.17.36,1.86,3.28,2.05,3.61.12-.29,1.64-3,1.81-3.32a1.57,1.57,0,0,0,.17-.63.29.29,0,0,0-.25-.3c-.11,0-.22,0-.22-.12s.06-.11.21-.11c.4,0,.79,0,1.14,0l1.29,0c.13,0,.22,0,.22.1s-.1.12-.23.12a1.3,1.3,0,0,0-.53.15,1.79,1.79,0,0,0-.65.59A38.51,38.51,0,0,0,110,49.57a2.89,2.89,0,0,0-.18,1.21v1c0,.19,0,.7,0,1.21,0,.35.13.62.5.67a5.1,5.1,0,0,0,.6,0c.13,0,.19,0,.19.1s-.1.12-.25.12c-.76,0-1.52,0-1.85,0s-1.06,0-1.51,0c-.17,0-.27,0-.27-.12s.06-.1.19-.1a2,2,0,0,0,.42,0c.24,0,.35-.31.38-.67,0-.51,0-1,0-1.21Z"/><path class="cls-1" d="M115.9,49.34a4.66,4.66,0,0,1,5-4.74c3,0,4.88,1.75,4.88,4.52a4.78,4.78,0,0,1-5,5A4.61,4.61,0,0,1,115.9,49.34Zm8.19.23c0-2.71-1.56-4.39-3.54-4.39-1.39,0-3,.77-3,3.78,0,2.51,1.39,4.51,3.71,4.51C122.13,53.47,124.09,53.06,124.09,49.57Z"/><path class="cls-1" d="M130.24,48.27c0-1.84,0-2.18,0-2.56s-.12-.6-.52-.69a2.5,2.5,0,0,0-.47,0c-.13,0-.21,0-.21-.11s.08-.11.27-.11c.64,0,1.4,0,1.66,0l1.7,0a3.87,3.87,0,0,1,2.22.52,2.1,2.1,0,0,1,.82,1.66,3.39,3.39,0,0,1-1.6,2.71c1.08,1.35,1.91,2.43,2.62,3.18a2.41,2.41,0,0,0,1.35.82,1.91,1.91,0,0,0,.34,0c.1,0,.15,0,.15.1s-.09.12-.23.12h-1.15a2.46,2.46,0,0,1-1.29-.23,5.82,5.82,0,0,1-1.66-1.78c-.48-.66-1-1.49-1.2-1.67a.25.25,0,0,0-.22-.08l-1.05,0c-.06,0-.1,0-.1.1v.17c0,1.12,0,2.08.06,2.59,0,.35.11.62.47.67a5.58,5.58,0,0,0,.59,0c.1,0,.15,0,.15.1s-.08.12-.24.12c-.7,0-1.6,0-1.78,0s-1,0-1.47,0c-.16,0-.24,0-.24-.12s0-.1.19-.1a2,2,0,0,0,.43,0c.24,0,.3-.31.35-.67.06-.51.06-1.46.06-2.58Zm1.43,1c0,.13,0,.18.11.22a3.19,3.19,0,0,0,.92.12,1.21,1.21,0,0,0,.86-.21,2.13,2.13,0,0,0,.71-1.81,1.93,1.93,0,0,0-1.85-2.21,2.65,2.65,0,0,0-.64,0c-.09,0-.11.07-.11.17Z"/><path class="cls-1" d="M143.27,48.81h.06c.41-.45,2.18-2.25,2.53-2.66s.6-.7.6-.91,0-.22-.17-.24-.16,0-.16-.12.06-.11.19-.11l1.25,0,1.41,0c.12,0,.21,0,.21.11s-.06.11-.18.11a2.37,2.37,0,0,0-.7.13A3.87,3.87,0,0,0,147,46c-.37.36-2.2,2.18-2.61,2.61.44.57,2.81,3.12,3.28,3.57a5.73,5.73,0,0,0,1.73,1.31,2.1,2.1,0,0,0,.75.18c.08,0,.16,0,.16.1s-.06.12-.29.12H149c-.36,0-.58,0-.83,0a2.37,2.37,0,0,1-1.5-.79c-.53-.47-2.91-3.26-3.17-3.62l-.13-.18h-.06v1.1c0,1.11,0,2.07,0,2.59,0,.34.13.6.44.65a5.12,5.12,0,0,0,.59,0c.1,0,.16,0,.16.1s-.1.12-.23.12c-.68,0-1.44,0-1.74,0s-1,0-1.52,0c-.16,0-.24,0-.24-.12s0-.1.19-.1a2,2,0,0,0,.44,0c.24,0,.3-.31.35-.67.06-.51.06-1.46.06-2.58V48.27c0-1.84,0-2.18,0-2.56s-.12-.6-.52-.69a2.49,2.49,0,0,0-.47,0c-.13,0-.21,0-.21-.11s.08-.11.27-.11c.64,0,1.4,0,1.69,0s1.05,0,1.46,0c.17,0,.25,0,.25.11s-.07.11-.17.11a1.8,1.8,0,0,0-.34,0c-.33.06-.42.27-.45.69s0,.73,0,2.56Z"/></g></g></svg>