<svg xmlns="http://www.w3.org/2000/svg" viewBox="0 0 172 135.28"><defs><style>.cls-1,.cls-2{fill:#353535;}.cls-2{fill-rule:evenodd;}</style></defs><title>mandarin</title><g id="Layer_2" data-name="Layer 2"><g id="Layer_1-2" data-name="Layer 1"><path class="cls-1" d="M103.81,104.55c0-1.48,0-1.67-.63-1.74l-.34,0a.35.35,0,0,1,0-.43,29.24,29.24,0,0,1,3-.14,4.79,4.79,0,0,1,2.49.52,2.5,2.5,0,0,1,1.15,2.25,2.63,2.63,0,0,1-1.57,2.44c-.08,0-.05.17,0,.26a18.2,18.2,0,0,0,2.32,4,.92.92,0,0,0,.7.37c.07.06,0,.42,0,.42h-2.24s-.35-.51-1.15-1.95c-.35-.65-.72-1.5-1-2.1s-.38-.52-.81-.52-.41,0-.41.34v2c0,1.64.12,1.68.73,1.78l.29,0c.09.11.08.39,0,.45-.58,0-1.17,0-1.74,0s-1.17,0-1.77,0a.34.34,0,0,1,0-.45l.29,0c.62-.09.73-.14.73-1.78v-5.65Zm1.52,2.22c0,.49,0,.52.63.52,1.29,0,1.88-.74,1.88-2.21,0-1.22-.67-2.28-1.81-2.28-.68,0-.7,0-.7.76v3.21Z"/><path class="cls-1" d="M57.85,104.55c0-1.48,0-1.67-.63-1.74l-.34,0a.35.35,0,0,1,0-.43,29.24,29.24,0,0,1,3-.14,4.79,4.79,0,0,1,2.49.52A2.5,2.5,0,0,1,63.55,105,2.63,2.63,0,0,1,62,107.4c-.08,0-.05.17,0,.26a18.21,18.21,0,0,0,2.32,4,.92.92,0,0,0,.7.37c.07.06,0,.42,0,.42H62.77s-.35-.51-1.15-1.95c-.35-.65-.72-1.5-1-2.1s-.38-.52-.81-.52-.41,0-.41.34v2c0,1.64.12,1.68.73,1.78l.29,0c.09.11.08.39,0,.45-.58,0-1.17,0-1.74,0s-1.17,0-1.77,0a.34.34,0,0,1,0-.45l.29,0c.62-.09.73-.14.73-1.78v-5.65Zm1.52,2.22c0,.49,0,.52.63.52,1.29,0,1.88-.74,1.88-2.21,0-1.22-.67-2.28-1.81-2.28-.68,0-.7,0-.7.76v3.21Z"/><path class="cls-1" d="M11,111.9c-.42-.06-.56-.17-.6-1.19-.09-2.26-.12-4.53-.12-6.79,0-.81.13-1.07.7-1.16l.43-.08a.29.29,0,0,0,0-.44q-.55,0-1.36,0c-.29,0-.71,0-1.07,0a17.54,17.54,0,0,1-1.05,2.92l-1.22,2.94c-.29.72-.47,1.15-.68,1.59-.17-.35-.51-1.12-.61-1.38L4,104.77a8.11,8.11,0,0,1-.71-2.54c-.48,0-.94,0-1.39,0s-.83,0-1.22,0c-.12,0-.13.34-.05.44l.44.09c.51.09.7.41.7,1.13,0,.93-.08,2.2-.13,3.24-.06,1.59-.09,2.58-.19,3.55s-.18,1.16-.81,1.25l-.22,0a.38.38,0,0,0,0,.44c.51,0,1,0,1.39,0s.88,0,1.36,0c.1-.06.1-.35,0-.44l-.43-.09c-.56-.11-.57-.35-.57-1.36,0-1.25,0-2.61.05-3.55,0-.64.05-1.84.08-2.58h0c.16.46.51,1.42.75,2.06l1.16,2.94c.3.76.86,2.26,1.08,3.09a.33.33,0,0,0,.34,0c.23-.72.88-2.42,1.33-3.49L8.1,106.3c.25-.61.43-1.07.78-1.91h0v6.25c0,1,0,1.16-.56,1.25L8,112c-.13.09-.08.38,0,.44.57,0,1.13,0,1.74,0s1,0,1.59,0c.14-.06.16-.38,0-.44L11,111.9Z"/><path class="cls-2" d="M18.2,108.63c.36,0,.4,0,.53.41l.61,2.08c.17.66.13.75-.34.81l-.29,0a.4.4,0,0,0,0,.44c.46,0,1,0,1.59,0s1.16,0,1.69,0a.37.37,0,0,0,0-.44l-.2,0c-.66-.14-.73-.24-1-1.27l-1.87-6.41c-.21-.69-.38-1.41-.58-2.1a.25.25,0,0,0-.22-.12s-.45.63-.91.73a2.78,2.78,0,0,1-.25,1.12l-1.78,5.44c-.27.83-.48,1.47-.64,1.87s-.34.64-.71.7l-.39.08a.39.39,0,0,0,0,.44c.45,0,.86,0,1.29,0s1,0,1.38,0c.1-.06.12-.34,0-.44l-.38-.08c-.48-.08-.53-.12-.27-1L16,109c.12-.41.1-.41.44-.41Zm-1.52-.69c-.31,0-.35,0-.21-.44L17,105.7c.23-.72.34-1.1.39-1.21h0a8.09,8.09,0,0,1,.36,1.21l.55,1.84c.1.37.05.4-.31.4Z"/><path class="cls-1" d="M32.42,106.12a13,13,0,0,1,.18-3c.09-.24.31-.31.56-.35l.3-.08a.35.35,0,0,0,0-.44c-.47,0-.81,0-1.36,0s-1,0-1.49,0c-.13,0-.14.34,0,.44l.3,0a.8.8,0,0,1,.65.38,10.29,10.29,0,0,1,.25,3v3c0,.24,0,.32,0,.37s-1.34-1.71-1.88-2.42l-1.3-1.65a20.25,20.25,0,0,1-2.09-3.17c-.31,0-.62,0-.9,0a13.88,13.88,0,0,1-1.53,0c-.13,0-.14.35-.05.44l.19,0a1.92,1.92,0,0,1,.69.31c.44.44.43.69.43,1.88v3.62a14,14,0,0,1-.17,3c-.09.24-.33.31-.57.35l-.29.08a.35.35,0,0,0,0,.44c.46,0,.81,0,1.35,0s1,0,1.48,0c.13,0,.14-.34,0-.44l-.29,0a.82.82,0,0,1-.66-.38,10.88,10.88,0,0,1-.23-3v-3c0-.81,0-1,0-1,.22.23.64.81,1.48,1.93l3,4.08c.94,1.25,1.31,1.77,1.52,2.1a.46.46,0,0,0,.44-.21c0-.35,0-2.23,0-2.69v-3.65Z"/><path class="cls-2" d="M37.22,110.17c0,1.62-.12,1.67-.73,1.76l-.29,0c-.09.11-.08.38,0,.44.57,0,1.16,0,1.65,0s1.09.09,1.88.09a6.24,6.24,0,0,0,3.22-.73,5,5,0,0,0,2.33-4.4,4.71,4.71,0,0,0-2.66-4.57,7.4,7.4,0,0,0-3.07-.52c-1.27,0-2.31,0-3.25.14a.35.35,0,0,0,0,.43l.27,0c.61.09.62.28.62,1.74v5.6Zm1.51-6c0-.72,0-1,.1-1.13a2,2,0,0,1,1.05-.21c2.17,0,3.67,1.47,3.67,4.5,0,2.58-1,4.51-3.35,4.51-1.38,0-1.47-.8-1.47-2.28v-5.38Z"/><path class="cls-2" d="M51.45,108.63c.36,0,.4,0,.53.41l.61,2.08c.17.66.13.75-.34.81L52,112a.4.4,0,0,0,0,.44c.45,0,1,0,1.59,0s1.16,0,1.69,0a.37.37,0,0,0,0-.44l-.2,0c-.66-.14-.73-.24-1-1.27l-1.87-6.41c-.21-.69-.38-1.41-.58-2.1a.25.25,0,0,0-.22-.12s-.45.63-.91.73a2.78,2.78,0,0,1-.25,1.12l-1.78,5.44c-.27.83-.48,1.47-.64,1.87s-.34.64-.71.7l-.39.08a.39.39,0,0,0,0,.44c.46,0,.86,0,1.29,0s1,0,1.38,0c.1-.06.12-.34,0-.44L49,111.9c-.48-.08-.53-.12-.27-1l.53-1.83c.12-.41.1-.41.44-.41Zm-1.52-.69c-.31,0-.35,0-.21-.44l.55-1.79c.23-.72.34-1.1.39-1.21h0A8.09,8.09,0,0,1,51,105.7l.55,1.84c.1.37.05.4-.31.4Z"/><path class="cls-1" d="M69.71,104.48c0-1.62.12-1.67.73-1.76l.29,0c.09-.11.08-.38,0-.44-.57,0-1.16,0-1.73,0s-1.18,0-1.75,0c-.1.06-.12.34,0,.44l.29,0c.61.09.73.14.73,1.76v5.69c0,1.62-.12,1.67-.73,1.76l-.29,0c-.09.11-.08.38,0,.44.57,0,1.18,0,1.75,0s1.16,0,1.73,0c.1-.06.12-.34,0-.44l-.29,0c-.61-.09-.73-.14-.73-1.76v-5.69Z"/><path class="cls-1" d="M81.76,106.12a13.06,13.06,0,0,1,.18-3c.09-.24.31-.31.56-.35l.3-.08a.35.35,0,0,0,0-.44c-.47,0-.81,0-1.36,0s-1,0-1.49,0c-.13,0-.14.34,0,.44l.3,0a.8.8,0,0,1,.65.38,10.29,10.29,0,0,1,.25,3v3c0,.24,0,.32,0,.37s-1.34-1.71-1.88-2.42l-1.3-1.65a20.25,20.25,0,0,1-2.09-3.17c-.31,0-.62,0-.9,0a13.88,13.88,0,0,1-1.53,0c-.13,0-.14.35-.05.44l.19,0a1.92,1.92,0,0,1,.69.31c.44.44.43.69.43,1.88v3.62a14,14,0,0,1-.17,3c-.09.24-.32.31-.57.35l-.29.08a.35.35,0,0,0,0,.44c.45,0,.81,0,1.35,0s1,0,1.48,0c.13,0,.14-.34,0-.44l-.29,0a.82.82,0,0,1-.66-.38,10.87,10.87,0,0,1-.23-3v-3c0-.81,0-1,0-1,.22.23.64.81,1.48,1.93l3,4.08c.94,1.25,1.31,1.77,1.52,2.1a.46.46,0,0,0,.44-.21c0-.35,0-2.23,0-2.69v-3.65Z"/><path class="cls-2" d="M95.22,102.11c-2.73,0-4.65,2.31-4.65,5.43,0,2.72,1.69,5.15,4.63,5.15,2.63,0,4.58-2.25,4.58-5.26,0-2.78-1.55-5.32-4.55-5.32Zm-.17.61c2.07,0,3,2.68,3,5,0,3.07-1.2,4.37-2.68,4.37-2.22,0-3-2.88-3-5,0-3.26,1.42-4.37,2.72-4.37Z"/><path class="cls-1" d="M116.49,104.56c0-1.62.12-1.67.73-1.76l.29,0c.09-.11.08-.38,0-.44-.57,0-1.16,0-1.73,0s-1.18,0-1.75,0c-.1.06-.12.34,0,.44l.29,0c.61.09.73.14.73,1.76v5.69c0,1.62-.12,1.67-.73,1.76l-.29,0c-.09.11-.08.38,0,.44.57,0,1.18,0,1.75,0s1.16,0,1.73,0c.1-.06.12-.34,0-.44l-.29,0c-.61-.09-.73-.14-.73-1.76v-5.69Z"/><path class="cls-1" d="M122.2,110.25c0,1.62-.12,1.67-.73,1.74l-.48.06c-.09.11-.08.38,0,.44.58,0,1.38,0,1.95,0h1.48c1.52,0,2.64,0,3.21,0a11.16,11.16,0,0,0,.55-2.22.28.28,0,0,0-.42-.09c-.45,1.24-.74,1.68-2.39,1.65-1.09,0-1.31-.12-1.47-.34a3.14,3.14,0,0,1-.22-1.59V108c0-.38,0-.41.31-.41h.62c1.13,0,1.35,0,1.44.67l.09.61c.1.09.35.09.42,0,0-.49,0-1,0-1.61s0-1.12,0-1.53c-.07-.12-.31-.12-.42,0l-.09.52c-.09.66-.31.67-1.44.67H124c-.3,0-.31,0-.31-.41v-2.58c0-.87,0-.9.56-.9h.87a3.27,3.27,0,0,1,1,.14c.42.12.61.5.82,1.39a.31.31,0,0,0,.42-.06c-.08-.66-.16-1.87-.21-2.13-.17,0-.92,0-1.75,0H123c-.57,0-1.18,0-1.68,0-.1.06-.12.34,0,.44l.21,0c.61.11.73.15.73,1.77v5.69Z"/><path class="cls-1" d="M139.51,106.19a13.07,13.07,0,0,1,.18-3c.09-.24.31-.31.56-.35l.3-.08a.35.35,0,0,0,0-.44c-.47,0-.81,0-1.36,0s-1,0-1.49,0c-.13,0-.14.34,0,.44l.3,0a.8.8,0,0,1,.65.38,10.29,10.29,0,0,1,.25,3v3c0,.24,0,.32,0,.37s-1.34-1.71-1.88-2.42l-1.3-1.65a20.26,20.26,0,0,1-2.09-3.17c-.31,0-.62,0-.9,0a13.89,13.89,0,0,1-1.53,0c-.13,0-.14.35-.05.44l.19,0a1.92,1.92,0,0,1,.69.31c.44.44.43.69.43,1.88v3.62a14.05,14.05,0,0,1-.17,3c-.09.24-.33.31-.57.35l-.29.08a.35.35,0,0,0,0,.44c.45,0,.81,0,1.35,0s1,0,1.48,0c.13,0,.14-.34,0-.44l-.29,0a.82.82,0,0,1-.66-.38,10.88,10.88,0,0,1-.23-3v-3c0-.81,0-1,0-1,.22.23.64.81,1.48,1.93l3,4.08c.94,1.25,1.31,1.77,1.52,2.1a.46.46,0,0,0,.44-.21c0-.35,0-2.23,0-2.69v-3.65Z"/><path class="cls-1" d="M147.29,110.25c0,1.62-.12,1.67-.73,1.73l-.55.08a.37.37,0,0,0,0,.44c.83,0,1.44,0,2,0s1.16,0,1.91,0c.1-.06.12-.34,0-.44l-.47-.06c-.61-.08-.73-.12-.73-1.74v-6.61c0-.64,0-.67.35-.67h.74c1.39,0,1.64.29,1.81,1.48a.28.28,0,0,0,.4,0,12.62,12.62,0,0,1,.19-2.43.19.19,0,0,0-.17-.08.34.34,0,0,0-.16.06c-.16.35-.35.4-1,.4h-5.3c-.88,0-1.07,0-1.13-.4a.14.14,0,0,0-.13-.06.15.15,0,0,0-.14.06c-.09.54-.29,1.48-.51,2.31a.3.3,0,0,0,.42.11c.48-1.24.83-1.41,2-1.41h.73c.34,0,.35,0,.35.67v6.61Z"/><path class="cls-2" d="M158.33,108.7c.36,0,.4,0,.53.41l.61,2.08c.17.66.13.75-.34.81l-.29,0a.4.4,0,0,0,0,.44c.46,0,1,0,1.59,0s1.16,0,1.69,0a.37.37,0,0,0,0-.44l-.2,0c-.66-.14-.73-.24-1-1.27l-1.87-6.41c-.21-.69-.38-1.41-.58-2.1a.25.25,0,0,0-.22-.12s-.46.63-.91.73a2.78,2.78,0,0,1-.25,1.12l-1.78,5.44c-.27.83-.48,1.47-.64,1.87s-.34.64-.71.7l-.39.08a.39.39,0,0,0,0,.44c.46,0,.86,0,1.29,0s1,0,1.38,0c.1-.06.12-.34,0-.44l-.38-.08c-.48-.08-.53-.12-.27-1l.53-1.84c.12-.41.1-.41.44-.41Zm-1.52-.69c-.31,0-.35,0-.21-.44l.55-1.79c.23-.72.34-1.1.39-1.21h0a8.13,8.13,0,0,1,.36,1.21l.55,1.84c.1.37.05.4-.31.4Z"/><path class="cls-1" d="M167.72,104.56c0-1.59.12-1.64.73-1.74l.29-.06a.34.34,0,0,0,0-.44c-.57,0-1.16,0-1.73,0s-1.18,0-1.83,0c-.12.06-.12.37,0,.44l.36.06c.61.11.73.15.73,1.74v5.69c0,1.59-.12,1.64-.73,1.73l-.39.08c-.12.08-.08.38,0,.44.55,0,1.2,0,1.86,0h1.35c1.46,0,2.57,0,3.12,0a16.51,16.51,0,0,0,.55-2.22.31.31,0,0,0-.4-.09c-.6,1.58-.81,1.65-2.25,1.65-1,0-1.25-.12-1.4-.34a3.1,3.1,0,0,1-.22-1.58v-5.37Z"/><path class="cls-1" d="M89.54,64.15q-1.16-.09-2.34-.09t-2.45.1l2.07,19.32h.84l1.88-19.32Z"/><path class="cls-1" d="M89.69,62.55q-1.23-.1-2.49-.1t-2.63.11L77.84,0,95.57,2.36,89.69,62.55Z"/><path class="cls-1" d="M83,64.34q-1.15.16-2.31.4t-2.38.61l6.07,18.45.82-.17L83,64.34Z"/><path class="cls-1" d="M82.85,62.74q-1.23.16-2.46.43t-2.55.66L58.18,4.06,76,2.66l6.84,60.09Z"/><path class="cls-1" d="M76.72,65.89q-1.09.39-2.17.88t-2.2,1.09l9.79,16.78.76-.34-6.18-18.4Z"/><path class="cls-1" d="M76.2,64.37q-1.17.42-2.31.93t-2.35,1.17L39.8,12.14,56.95,7,76.2,64.37Z"/><path class="cls-1" d="M70.86,68.73q-1,.61-1.94,1.31T67,71.57L80.08,85.93l.68-.49-9.9-16.71Z"/><path class="cls-1" d="M70,67.34Q69,68,68,68.74t-2.06,1.64L23.52,23.88l15.7-8.57L70,67.34Z"/><path class="cls-1" d="M65.73,72.73q-.84.81-1.62,1.69t-1.56,1.9l15.8,11.31L78.9,87,65.73,72.73Z"/><path class="cls-1" d="M64.63,71.55q-.89.86-1.73,1.8t-1.67,2L10.06,38.77,23.62,27.1l41,44.44Z"/><path class="cls-1" d="M61.54,77.71q-.65,1-1.24,2t-1.13,2.18L77,89.64l.41-.73L61.54,77.71Z"/><path class="cls-1" d="M60.22,76.78q-.69,1-1.32,2.12T57.7,81.24L0,56.14,10.82,41.9l49.4,34.88Z"/><path class="cls-1" d="M95.94,65.32q-1.11-.33-2.27-.58t-2.42-.42l-2,19.32.82.17,5.88-18.5Z"/><path class="cls-1" d="M96.43,63.79q-1.19-.35-2.42-.62t-2.59-.44L97.92.14l16.84,6L96.43,63.79Z"/><path class="cls-1" d="M102,67.81q-1-.55-2.1-1t-2.28-.91l-6,18.47.76.34L102,67.81Z"/><path class="cls-1" d="M102.75,66.4q-1.09-.59-2.23-1.11t-2.44-1L117.52,4.48l15.22,9.4-30,52.52Z"/><path class="cls-1" d="M107.32,71.5q-.88-.76-1.84-1.45t-2-1.37L93.71,85.48l.67.49L107.32,71.5Z"/><path class="cls-1" d="M108.39,70.29q-.94-.81-2-1.55t-2.18-1.46l31.52-54.45L148.69,25.2l-40.3,45.09Z"/><path class="cls-1" d="M111.79,76.22q-.71-.92-1.49-1.81t-1.71-1.77l-13,14.4.56.62,15.68-11.45Z"/><path class="cls-1" d="M113.09,75.27q-.75-1-1.59-1.93t-1.83-1.89L151.89,24.8l10,14.8L113.09,75.27Z"/><path class="cls-1" d="M115.18,81.78q-.5-1.05-1.08-2.08t-1.3-2.08L97,89l.41.73,17.73-7.92Z"/><path class="cls-1" d="M116.65,81.12q-.53-1.12-1.15-2.21t-1.39-2.23l51-36.8,6.72,16.58L116.65,81.12Z"/><path class="cls-1" d="M0,97H171.86M0,117.4H171.86"/><path class="cls-1" d="M46.28,132.51a3.1,3.1,0,0,0,.22,1.58c.16.21.36.34,1.4.34,1.44,0,1.65-.08,2.25-1.65a.31.31,0,0,1,.4.09,16.47,16.47,0,0,1-.55,2.22c-.55,0-1.66,0-3.12,0H45.54c-.66,0-1.31,0-1.86,0-.1-.06-.14-.37,0-.44l.39-.08c.61-.09.73-.14.73-1.73v-5.69c0-1.59-.12-1.64-.73-1.74l-.36-.06c-.09-.08-.09-.38,0-.44.65,0,1.23,0,1.83,0s1.16,0,1.73,0a.34.34,0,0,1,0,.44l-.29.06c-.61.11-.73.15-.73,1.74Z"/><path class="cls-1" d="M55.53,131.29c-.34,0-.32,0-.44.41l-.53,1.84c-.26.9-.21.95.27,1l.38.08c.09.11.08.38,0,.44-.42,0-.85,0-1.38,0s-.83,0-1.29,0a.39.39,0,0,1,0-.44l.39-.08c.38-.06.52-.2.72-.7s.36-1,.64-1.87L56,126.55a2.78,2.78,0,0,0,.25-1.12c.45-.11.88-.73.91-.73a.25.25,0,0,1,.22.12c.21.69.38,1.41.58,2.1l1.87,6.41c.3,1,.36,1.13,1,1.27l.2,0a.37.37,0,0,1,0,.44c-.53,0-1,0-1.69,0s-1.13,0-1.59,0a.4.4,0,0,1,0-.44l.29,0c.47-.06.51-.15.34-.81l-.61-2.08c-.13-.41-.17-.41-.53-.41Zm1.56-.69c.36,0,.42,0,.31-.4l-.55-1.84a8.07,8.07,0,0,0-.36-1.21h0c-.05.11-.16.49-.39,1.21l-.55,1.79c-.14.44-.1.44.21.44Z"/><path class="cls-1" d="M64.17,134.64a5.22,5.22,0,0,1-.39-2.32.26.26,0,0,1,.4-.06c.23.78.94,2.42,2.21,2.42A1.5,1.5,0,0,0,67.94,133a2.49,2.49,0,0,0-1.33-2.22l-.56-.37a3.54,3.54,0,0,1-1.83-3,2.66,2.66,0,0,1,2.86-2.8,7.45,7.45,0,0,1,1.78.32,7.43,7.43,0,0,1,.27,2.06.28.28,0,0,1-.42,0c-.2-.8-.65-1.82-1.75-1.82a1.45,1.45,0,0,0-1.47,1.61,2.27,2.27,0,0,0,1.24,1.87l.81.5a3.48,3.48,0,0,1,1.78,3,2.82,2.82,0,0,1-3,3A3.51,3.51,0,0,1,64.17,134.64Z"/><path class="cls-1" d="M84.56,131.24c-.52,1.39-1.13,3.18-1.35,4a.29.29,0,0,1-.22.08.44.44,0,0,1-.25-.08c-.16-.61-.36-1.36-.6-2l-2.27-6.44c-.36-1-.48-1.24-1-1.36l-.31-.08c-.09-.11-.09-.38,0-.43.51,0,1.07,0,1.57,0s1,0,1.72,0a.32.32,0,0,1,0,.44l-.33.09c-.29.08-.39.15-.39.28a13,13,0,0,0,.64,2l.94,2.72c.23.69.58,1.59.71,1.94.7-1.93,1.48-4,2.17-6.12.21-.61.17-.73-.22-.84l-.38-.11a.37.37,0,0,1,0-.44c.53,0,1,0,1.39,0s.9,0,1.26,0c.1.08.09.32,0,.44l-.33.08a1.08,1.08,0,0,0-.81.63c-.36.73-.74,1.76-1.33,3.3Z"/><path class="cls-1" d="M91,127.15c0-1.62-.12-1.67-.73-1.77l-.21,0c-.09-.11-.08-.38,0-.44.49,0,1.1,0,1.68,0h2.48c.83,0,1.59,0,1.76,0,.05.26.13,1.47.21,2.13a.31.31,0,0,1-.42.06c-.21-.89-.4-1.27-.82-1.39a3.26,3.26,0,0,0-1-.14h-.87c-.56,0-.56,0-.56.9V129c0,.4,0,.41.31.41h.62c1.13,0,1.35,0,1.44-.67l.09-.52c.1-.11.35-.11.42,0,0,.41,0,1,0,1.53s0,1.12,0,1.61c-.07.11-.31.11-.42,0l-.09-.61c-.09-.64-.31-.67-1.44-.67h-.62c-.3,0-.31,0-.31.41v1.94a3.14,3.14,0,0,0,.22,1.59c.16.21.38.34,1.47.34,1.65,0,1.94-.41,2.39-1.65a.28.28,0,0,1,.42.09,11.15,11.15,0,0,1-.55,2.22c-.57,0-1.69,0-3.21,0H91.81c-.57,0-1.36,0-1.95,0-.1-.06-.12-.34,0-.44l.48-.06c.61-.08.73-.12.73-1.74Z"/><path class="cls-1" d="M107.9,133.45c0,.54.06.93.31,1.07a.21.21,0,0,1,0,.23,2.4,2.4,0,0,0-.62.12,10.88,10.88,0,0,1-2.52.41,5,5,0,0,1-4-1.68,5.55,5.55,0,0,1-1.14-3.5,5.67,5.67,0,0,1,1.2-3.59,5.1,5.1,0,0,1,4.15-1.8,8,8,0,0,1,1.73.23,4.48,4.48,0,0,0,.83.14c0,.46.1,1.24.17,2.43a.25.25,0,0,1-.42,0,2.42,2.42,0,0,0-2.5-2.22c-2.29,0-3.39,1.94-3.39,4.54a6.1,6.1,0,0,0,.94,3.52,3.1,3.1,0,0,0,2.51,1.3c.62,0,1-.12,1.16-.35a2.26,2.26,0,0,0,.12-1v-.55c0-1.09,0-1.18-.88-1.35l-.47-.09a.37.37,0,0,1,0-.44c.51,0,1.13,0,2,0,.58,0,1,0,1.59,0a.31.31,0,0,1,0,.44l-.23,0c-.48.08-.56.21-.56,1.15Z"/><path class="cls-1" d="M114,131.29c-.34,0-.33,0-.44.41l-.53,1.84c-.26.9-.21.95.27,1l.38.08c.09.11.08.38,0,.44-.42,0-.84,0-1.38,0s-.83,0-1.29,0a.39.39,0,0,1,0-.44l.39-.08c.38-.06.52-.2.71-.7s.36-1,.64-1.87l1.78-5.44a2.78,2.78,0,0,0,.25-1.12c.46-.11.88-.73.91-.73a.25.25,0,0,1,.22.12c.21.69.38,1.41.58,2.1l1.87,6.41c.3,1,.36,1.13,1,1.27l.19,0a.37.37,0,0,1,0,.44c-.53,0-1,0-1.69,0s-1.13,0-1.59,0a.4.4,0,0,1,0-.44l.29,0c.47-.06.51-.15.34-.81l-.61-2.08c-.13-.41-.17-.41-.53-.41Zm1.56-.69c.36,0,.42,0,.31-.4l-.55-1.84a8.14,8.14,0,0,0-.36-1.21h0c-.05.11-.16.49-.39,1.21l-.55,1.79c-.14.44-.1.44.21.44Z"/><path class="cls-1" d="M122.68,134.64a5.22,5.22,0,0,1-.39-2.32.26.26,0,0,1,.4-.06c.23.78.94,2.42,2.21,2.42a1.5,1.5,0,0,0,1.55-1.64,2.49,2.49,0,0,0-1.33-2.22l-.56-.37a3.54,3.54,0,0,1-1.83-3,2.66,2.66,0,0,1,2.86-2.8,7.45,7.45,0,0,1,1.78.32,7.44,7.44,0,0,1,.27,2.06.28.28,0,0,1-.42,0c-.2-.8-.65-1.82-1.75-1.82a1.45,1.45,0,0,0-1.47,1.61,2.27,2.27,0,0,0,1.24,1.87l.81.5a3.48,3.48,0,0,1,1.78,3,2.82,2.82,0,0,1-3,3A3.51,3.51,0,0,1,122.68,134.64Z"/></g></g></svg>