<svg xmlns="http://www.w3.org/2000/svg" viewBox="0 0 148.74 178"><defs><style>.cls-1{fill:#353535;}</style></defs><title>mastersommeliers</title><g id="Layer_2" data-name="Layer 2"><g id="Layer_1-2" data-name="Layer 1"><path class="cls-1" d="M148.39,87.32c0,13.69-1.72,27.12-6.9,39.9C134.65,144.1,124,158,108.6,168A60.9,60.9,0,0,1,75.9,178c-18.13.37-33.46-6.15-46.58-18.39C14.57,145.82,5.27,129,1.84,109.15-2.74,82.63,1,57.52,15.56,34.52,24.21,20.88,35.78,10.41,51,4.72c24.25-9,46.47-5.11,66.07,11.83,16.75,14.47,26.53,33,30.08,54.72.86,5.28,1.05,10.67,1.55,16ZM21,85.28c0,10.89.92,18.49,2.78,25.56C27.52,124.89,34.51,137,45.75,146.3c16.65,13.85,39,14.06,56,.55a66.54,66.54,0,0,0,21.37-30.59c6.49-18.48,5.82-37-.66-55.35-4.17-11.8-10.83-22-20.78-29.84-9.52-7.48-20.29-10.87-32.41-9.3-12.61,1.63-22.8,7.65-30.85,17.37A74.57,74.57,0,0,0,21,85.28Zm70.57,84.81-2.54-9.15c2.2-1.32,3.73-1,4.65,1.12s1.57,4.39,2.32,6.54l-1.11,1,.15.26L98.73,168l-.13-.28-1.51.13-3-6.18.33-.2,5.55,3.45L99.66,158l.35-.07,3.87,6.68-1,.9.15.23,3.72-1.82-.14-.36h-1.22l-4.77-8.16,2.52-1.84,5.92,7.67-.66,1,.17.17,7.3-5.39-1.57-1.85-.24.16.24.91L111,160.44l-3.25-4,3.87-2.56,1.11.7.23-.25-2.33-2.9.22,1.58-3.35,3.15-2.88-3.83,4.17-2.6,1.63,1-1.22-2.18,1.23-.79,7,6.66-.64,1.18.41.36,5.45-6.74.26.78-1.83-2.52c.33,2.76-.46,4.33-2.68,5.53l-6.57-6.51.61-1.51c-1.66.79-2,3.06-3.7,3-3.09,3.09-6.07,5.71-9.65,7.41v7l-5.82-3.64-5.89,2-1.45,6.67-5.08-5.42-2.14.55c3.09,2.93,1.94,6.66,2.4,10l-1.22.6.12.31,3.75-.81-.06-.3-1.22-.15L81,165.24l.48-.32,4.42,4.69,1.47-6.11h.42l2,7-1.24.71.11.29,4.47-1v-.29ZM46.8,160.3c.22,2.18.3,4.08.63,5.93.29,1.57,1.3,2.1,2.45,1.86l-1.25-6.26c.78.17,1.21.29,1.65.35a3.33,3.33,0,0,0,3.43-1.9c.48-1.19.1-2.27-1.24-3.25a16.52,16.52,0,0,0-2.21-1.3c-1.16-.6-2.34-1.14-3.49-1.7l.11-1c-3-.35-4.49-2.81-6.62-4.33l.33-.9c-3.62-.72-4.86-3.95-7-6.17l.1-1.32-1.22.31c-.89-2.83-2.5-4.26-4.74-4.22a3,3,0,0,0-2.89,4.21c.34.88.84,1.7,1.19,2.58a21.75,21.75,0,0,1,.61,2.12c-1,.91-1.85,1.14-2.67.5a5.31,5.31,0,0,1-1.91-5l1-1.16-.25-.23-3.77,2.78.12.24,1.22-.26c.19.54.32,1,.52,1.47a4.87,4.87,0,0,0,2.85,2.91,3.48,3.48,0,0,0,3.57-.58,2.75,2.75,0,0,0,.68-3.12c-.4-1.24-.91-2.44-1.32-3.68a14,14,0,0,1-.35-1.68c2.65-.94,4.5.88,4.51,4.16l-.74,1,1.34.36,1.1-.61,2.71,2.15-7,6.72L27,150.59l-.23.3,3.42,2.95-.71-1.14,7.17-6.76,1.88,2.79-.63,1.43.16.11,1.5-1.24.46.42L34.21,157l-1.47-.21,7,5.86,1.7-2.15c-2.43.54-3.91-.15-5.7-2.35l2.75-3.54c.69.62,1.23,1.14,1.82,1.62s1.23.93,1.84,1.39l-.33.32-.23.92.28.14,1.93-2.43c-2.55-.24-3.59-.8-4.89-2.55l2.75-3.36c1.64,1.46,3.84,2.26,3.51,4.95l1.05-1.42,1.13.8-4.69,8.52-1.2-.4-.16.33,4.06,2.28.3-.38-1.44-.73L49,156a2.91,2.91,0,0,1,2.63,4C50.59,162.71,48.66,160.94,46.8,160.3ZM120.25,136l8.19,4.94-.37,1.4.21.09,5-7.79L131,133.4l-.14.21.91,1.21-2.25,4.55-4.16-2.44,2.7-3.73,1.27.24.13-.29-2.88-1.75c.5,2.3-.6,3.75-1.71,5.18-.72-.4-1.37-.71-2-1.1s-1.18-.88-2-1.52l3.86-4.1-.8-.6.84-1.44,8.8,4-.16,1.28.31.11,1.72-3.82-.28-.14-.9.76-8.69-3.93c.27-2.16,1.47-3.25,3.13-2.85.7.17,1.68.61,1.85,1.15a14.73,14.73,0,0,1,.27,3.53l6.37-1.31.61-2.28-6.3,1.59c.12-.66.17-.91.2-1.17A3.44,3.44,0,0,0,129.7,121c-1.31-.44-2.58.21-3.44,1.92-.57,1.12-.9,2.36-1.48,3.48s-1.22,1.89-2.15,3.31c.1,2.61-2.8,4.47-3.61,7.36ZM9.53,118.82l6.87-2.41.15.24-4.21,5.24,6.8.65,0,.3-6.86,3.05-.88-1.12-.29.17,1.49,4,.33-.09-.07-1.25,8.79-3.89.88,1.12.28-.19-1-2.57-6.95-.52,4.7-5.78-1-2.66A3.2,3.2,0,0,1,16,115.61c-2.28.67-4.59,1.26-6.85,1.87l-.9-1.12-.27.17,1.45,3.9.32-.1ZM71.76,6.41c2.24-.47,3.79.43,4.1,2.36.27,1.68-.6,2.34-4,2.76,1.29,1.73,2.35,3.39,3.66,4.83,1,1.12,2.16.92,3.06-.21-2.43-.43-2.85-2.66-4-4.34.55-.24,1.05-.43,1.52-.68A3,3,0,0,0,77.9,7.93a2.39,2.39,0,0,0-2.53-2c-2.39-.08-4.79,0-7.18,0l0,.41,1.59.39v9.74l-1.32.19,0,.25H73.1v-.21l-1.35-.58ZM99.66,24c3.71,0,6.53-2.49,6.47-5.65A6,6,0,0,0,100,12.48c-3.68,0-6.2,2.34-6.19,5.71A5.46,5.46,0,0,0,99.66,24ZM67.21,161.89a5.24,5.24,0,0,0-5.82-.37,3,3,0,0,0-1.64,3,2.84,2.84,0,0,0,2.19,2.76,27.36,27.36,0,0,1,2.69.89,1.61,1.61,0,0,1,1.09,1.94,1.51,1.51,0,0,1-1.82,1.23A5.4,5.4,0,0,1,59.46,169v-1.56h-.29L58.22,172l1-.81a5.66,5.66,0,0,0,5.75.53,3,3,0,0,0,1.91-2.86,2.72,2.72,0,0,0-1.88-2.82c-.71-.29-1.45-.5-2.14-.83s-1.43-.81-2.15-1.23l.57-1.42a4.35,4.35,0,0,1,5.36,1.07l.17,1.16.34.06.86-3.6-.26-.09Zm12.47,5.55a4.92,4.92,0,0,0-5-5.36c-3.82-.14-6.69,2.36-6.83,5.94-.12,3.08,2.51,5.63,5.94,5.77C76.87,173.92,79.53,171.05,79.68,167.44ZM48.4,24.2c3.53,0,6-2.63,6.06-6.36,0-3.26-2.12-5.56-5.15-5.57a6.36,6.36,0,0,0-6.42,6.45A5.16,5.16,0,0,0,48.4,24.2ZM129.56,113a36.67,36.67,0,0,0-1,4.61,2.92,2.92,0,0,0,2.37,3.31c1.26.4,2.34-.05,3.3-1.47.61-.89,1.12-1.85,1.68-2.78s1.23-1.43,2.24-1,1,1.42.73,2.34a5.41,5.41,0,0,1-3.59,4.06l3.81,1.09.09-.22-1-.74a8.5,8.5,0,0,0,.79-1.29,13,13,0,0,0,1-3,3.86,3.86,0,0,0-2.55-3.64c-1.49-.45-2.39.48-3.18,1.51s-1.36,2-2.12,3a14,14,0,0,1-1.74,1.52c-.43-.78-1-1.3-1-1.85-.09-2.24.92-3.91,3.37-4.95l-3.55-1-.09.26ZM55.78,9.51c.21.9.4,1.77.63,2.64a37.18,37.18,0,0,0,1.33,4.67c.83,2,2.39,2.52,4.89,1.94,2.3-.53,3.44-1.68,3.24-3.79s-.79-4.33-1.16-6.51a12.51,12.51,0,0,1,0-2l-3.1.68,0,.3h1.57a15,15,0,0,1,1.76,7c0,1.43-.18,3-1.8,3.65s-3.27,0-3.86-2c-.68-2.32-1.11-4.71-1.65-7.07l1.17-.6L58.67,8,54.23,9.23l.1.39Zm57.07,17.57L109,24.29l3.53-3.76,3.33,4.83,1.62-1.92c-3.51-.54-4.8-3.81-7.82-5.34l1.05,1.5-6.38,7.14-1.22-.35-.13.26,3.21,2.72.21-.19-.7-1.11,3-3.25,3.66,2.94-.4.39-.45,1,.28.19L114,26.65l-.23-.21Zm-32.58-19c1.46-1,2.8-1.4,4.34-.39l-1.94,9.13L81,17.08l0,.28,4.66.92.08-.28-1.28-.72,2-9.35a4.24,4.24,0,0,1,3.77,2.26l.62-2.88c-3.68.53-6.87-.61-10-2.11ZM37.82,17.87l-.27.18L38,19.12c-4.17,1.53-5.8,4.82-4.32,8.6,1.2,3.06,4.17,4.46,7,3.28,2.5-1,4-3.6,3.16-5.45-.13.5-.23,1-.39,1.44a3.69,3.69,0,0,1-5.84,2.07,6.88,6.88,0,0,1-3.12-4.87c-.22-1.32-.15-2.62,1.12-3.35a3.2,3.2,0,0,1,3.8.21,5.54,5.54,0,0,0,1.06.51l.13-.25ZM18,137.35,16.73,136l-.32.24,2.49,4.44.29-.13-.39-1.43,7.42-9-11.75,1-1-.77-.23.2,2,3.39.31-.18L15,132.24l2.84-.51,1.88,3.42Zm105.45,10.84.3.26,2.75-3.59-.25-.19-1.06.82-7.57-5.9.53-1.55-.27-.1L115,141.79l.2.2,1.33-.9L124,147Z"/><path class="cls-1" d="M122.91,89.14c-.09,14.88-3.64,28.77-12,41.22-5.78,8.6-13.19,15.38-23.05,19-13.39,4.86-25.88,2.62-37.29-5.68-9.79-7.12-16-16.88-20.12-28.11A75.6,75.6,0,0,1,26,91.7C25.56,78,28.24,65,34.8,53c4.47-8.22,10.36-15.23,18.38-20.23,15-9.34,32.49-8.3,46.35,2.72C109,43,115.11,52.89,119,64.25A75.24,75.24,0,0,1,122.91,89.14Zm-32.31-51,.48.26,3.27,1.88-1.67.37,3.78,2.62-.67.74,6.78-2.23c-.26-1.62-1.82-1-2.73-1.46-.74-2.64-.74-2.64-2.64-3L98,35.89l-1.89-.49-.51,1.32-5.9-2.09.16-1.16,1.54-.65,2.38,1.69c-1.42-2.64-7.46-4-9-2.2l1.82,1.51-.13.53-3.15.24L81.5,32l2.59-1.44L83.94,30l-3.41-.75.32,1.82H76.08l-2.6,1.41,3.33,1v1A24.61,24.61,0,0,1,88,37.08C88.82,37.47,89.72,37.78,90.59,38.12ZM113,81.84l0,0a2.85,2.85,0,0,0-3.08.21l1.12,2.33c-1.59.8-1.71,1-1.52,2.48,1.87.33,2.56,1.16,2.57,2.81l-2.23,2.42,3,.73-.07.28-3,.62.43,6.4a10.56,10.56,0,0,1,1.81.45,6.21,6.21,0,0,1,1.19.91l-.28.4-2.51-.56-.34.44,1.78,3.08-1.26.23.6,5,2,1.6c-1.69.18-3.16-.47-3.89,1.05l-2.83-.19,1.53-1.06a1.72,1.72,0,0,0-2.24.79c-.62.78-1.28,1.4-2.41.85l.26-1.91c-1.77.48-2.08,1.88-2.88,3l3,1c-1.57.58-3.17.8-2.74,2.56l-3,1.88-.08-1.25c-3.76,1.23-6.9.66-8.22-1.53,3.35,1.2,6.52.26,9.68-.33l.7-4.62,3.21-1.38c-1.39-1-3.25.48-4.08-1.33.31-2.39.62-2.83,2.25-2.88l-.7,3c3.39-1.83,5.59.73,8.51,1.49a58.12,58.12,0,0,0,.23-6.38c-.35-4.86-.92-9.7-1.36-14.56-.5-5.61-.23-11.09,2.74-16.14a24.72,24.72,0,0,0,1.9-4.47,21.1,21.1,0,0,0,.58-3.13h-3.5l-1-3c-2.17-.87-3.33-.46-4.26,1.88-1.21,3.05-3.62,4.51-6.32,5.48l-1.07-1.73,1.14-1.33c-2.16-3-6.25-2.84-8.39-5.66a4,4,0,0,1,1.51.36c1.37.69,2.69,1.48,4.07,2.15a34,34,0,0,0,4.33,1.85,2,2,0,0,0,2.71-1.55,23.47,23.47,0,0,0,.47-2.61c2.52.45,3.77-1.65,5.61-2.67l-1.49-2,4.54-2.33c-1.59-1.93-5.22-2.47-6.61-.8l2.13,1-.05.37h-6.42c1.16,1.88,3.6.64,4.34,2.69l-5.14-1.72c.6,1.92,2.44,1.62,3.42,2.58a3.67,3.67,0,0,1-1.54-.07c-.9-.29-1.75-.74-2.64-1a2.28,2.28,0,0,0-2.72.43l5.12,1.89-.12.4c-3.07.16-5.69-2.46-9.15-1.34a2,2,0,0,0,1.09.85c.68.24,1.42.31,2.07.59A9.68,9.68,0,0,1,97,62l-.27.39a10.58,10.58,0,0,0-1.39-.45c-2.34-.42-4.66-.94-7-1.16a3.55,3.55,0,0,0-3.39,1.91l5.69,4.15c-3.44-.08-5.51-3.69-9.31-3.35,1.59,1.95,4.47,1.85,5.39,4.3a9.57,9.57,0,0,1-2.57-.7c-1.64-.74-3.22-1.64-4.89-2.31a4.17,4.17,0,0,0-4.35.31A19.63,19.63,0,0,1,82.72,70a17.8,17.8,0,0,1-4.54-1.38c-1.5-.72-2.84-1.75-4.3-2.56A6.51,6.51,0,0,0,69,65.18c1.78,2,4.81,2.67,4.84,6-3.73-3.06-7.57-5.56-12.65-4.1-.09-1.19.35-1.56,1.29-1.69,4.22-.59,8.47-1.07,12.64-1.93a75.65,75.65,0,0,0,9.19-2.77c7.8-2.69,15.56-5.48,23.36-8.18,2.1-.73,2.14-.63,2-2.77l1.35.21-1.32-1.88c-2.21-.31-4.21,1.39-6.48.2l.45-3.6a4.32,4.32,0,0,0-4.29.24c-1.74.85-3.39,1.89-5.15,2.71-2.57,1.2-3.88.63-5-2-.08-.19-.21-.37-.5-.88l-4.22,3.08-.88-1.4c-1.19-.42-1.89.25-2.53,1.07a2.3,2.3,0,0,1-2.4,1.21c-.64-1.63.1-3.83-2.22-5.12-.55.67-1.14,1.34-1.67,2.07s-1,1.52-1.51,2.32l-1.28-.63c0-2.7,2.14-4,7.3-4.59a11.73,11.73,0,0,0,.08,1.48,1.35,1.35,0,0,0,1.73,1.26c2.35-.51,4.68-1.09,7-1.64l.16-.29-5.2-1.92a4.93,4.93,0,0,1,4,.43c1.29.65,2.51,1.45,3.81,2a13.53,13.53,0,0,0,2.41.63l.15-.52C89.79,37.8,83,37.86,76.83,36.53l-1.15,1.53-1.48-.87L71.9,38.9l-.34-.38,1-1.75c-8.69-1.32-21.08,4.71-25.79,12.56,2.48-.27,3.26-2.64,5.16-3.49l-2.35,3.72.29.24C55.68,45,60.52,38.57,69.35,38.07c-7.72,2.83-14.47,6.39-18.66,13.68,1.6.47,2-.61,2.43-1.41,2.42-4.13,6.48-6.16,10.46-8.3-2.05,2.5-5.81,3.13-7.21,6.34l.33.42,7.59-5.39.22.32c-2.68,2.6-5.25,5.36-9,6.34l.87,1.69c4.18-2.4,7.06-6.94,12.49-8.28-3.66,3.19-7.88,5.11-10.72,8.75,1.25,1.52,2,.09,3-.43l-.27,2,2.06-1.45-.17,1.72.45.22L69.14,47l.45.26L67.1,55.39c-3.87.68-6.58,2.49-8.1,5.9L57.43,61l-.25.27,1.14,1.49c1.11,2.79,2.38,5.54,4.69,7.62.87.78,2.15,1.78,3.1,1.66,2.07-.27,3.27.87,4.73,1.83a12.57,12.57,0,0,0,4.05,2c3.12.64,6.32.92,9.57,1.35,1.23-1.54,1.3-1.57,3.26-1.1L88,74l3,.38c.48-1.82,1.78-2.37,3.6-2.27-.23-.66-.36-1.07-.52-1.47s-.35-.79-.54-1.2c2-.56,2.82-.2,3.76,1.54l-1.49,1,.16,1.42c-3.33,2.06-6.58,4.09-9.88,6.05a3.35,3.35,0,0,1-2,.49A53.07,53.07,0,0,1,77,78.61c-2.67-.75-5.23-1.87-8-2.87l-.88,4.82-2.44,1.6c1.7,4.83,0,8.5-3.73,11.58,2.35,2,3.66,4.36,2.15,7.33a8.09,8.09,0,0,1-7.3,4.63c-3.14.1-4.61-2-5.33-4.86H47.87l-1.79-2.41-1.39.91a25.86,25.86,0,0,1,.58,4.69,40.8,40.8,0,0,1-1,6.13c-.7,3.26-1.61,6.5-.7,9.82-2.25,3,.39,6.14-.69,9.23,1.94.15,2.51,1.44,3,2.89a8.39,8.39,0,0,0,.78,1.86,2.54,2.54,0,0,0,2.56,1.41c1.46-.75,1-3.13,3.09-3.2.36,2.1-.49,3.65-2.13,5l3.44.73c.71,2.09,2.4,3.05,4.17,3.92s3.85,1.87,4.61,3.86c1.22.48,2.29.84,3.31,1.3,1.44.65,2.81,1.44,4.27,2a5.92,5.92,0,0,0,4.5.11c-.47-6.9-.07-13.61,2.51-19.92-.88-2.12-3.6-2.63-4-5.32a38.75,38.75,0,0,0,3.21,2.77,58.81,58.81,0,0,0,6.93,4.4c3.81,1.89,7.9.81,11.87.48a2.22,2.22,0,0,0,1.91-2.33c.1-2.2,0-4.4,0-6.82l-3.17-1.14,0-.22h4.34l.17,1.77c1,.38,2.41-.29,2.89,1.29H98v1.45c2,.75,2.52,1,2.59,1.4-.8.39-2.22-.35-2.44,1.31.24.15.5.45.67.4,1.28-.34,2.55-.74,4-1.18l.74,1.07-2.5.58-.31.68,2.08.82-.46.48-2,.32.16-.31a13.05,13.05,0,0,0-2.12-1.32c-.22-.09-.72.53-1,.75l1.5,1.7c-1.41.26-2.57-.8-3.46.27l1.17,1.19c-3.17-.76-3.17-.76-4.09-.16L94.27,135l-.21.37-3.28-.56L91,136l-3.25,1.16-1.34-.78,3.31-1.93L88,133.86l-1.12,1.05c-1-.17-2.09-.3-3.17-.56-1.35-.32-2.59-.39-3.39.81l-3.22-1.92L76,134.65h2.77l-1.55,4.08-1.94.12.34,3c.68-.62,1.06-.92,1.39-1.28,1.07-1.16,2.08-2.39,3.19-3.5a4.8,4.8,0,0,1,4.11-1.67l.14.36L81.07,137c-.33,1.67-.42,3.83-3.48,3.42l1.09,1.87c-2.9.75-2.9.75-2.87,1.87.21,0,.46.07.63,0a25.24,25.24,0,0,0,3.37-1.86c1.19-.87,2.16-2.07,3.91-2.19,2.79,2.49,5.76,1.07,8.78.06L93.75,142c-1.54.17-3-1-4.25.36l3.88,1.76,2.85-3.4-2.06-1.07c5.26.45,7.49-3.31,9.91-6.73a6,6,0,0,0,2-.57,5.68,5.68,0,0,0-.31-1.23l-1.75,1-.32-.24,1.26-2.6,2.45,1.95,1.29-1.77-3.33-1c.75-1,1.39-1.76,2-2.56s1.37-1.66,2-2.45l2.53.71,1.32-3c-.58-.2-1.19-.62-1.46-.46a12.82,12.82,0,0,0-1.92,1.66c-.23-1.06-.23-1.06,2.4-5l1.93.61-2.57,1,0,.6,2.77.54c.57-2.65.83-5.23,3-6.91l-.88-1.82-2.13,2.39-2.5.95-.23-.53,2.24-1.08c-.19-1.21.89-1.59,1.88-2.08s1.84-.7,1.9-2l-1.65.59c-.46-1,.19-1.09.76-1.36a13.79,13.79,0,0,0,1.51-.94l-.23-.36a10.52,10.52,0,0,1-1.43.59,9.41,9.41,0,0,1-1.48.16,13.06,13.06,0,0,1,2.17-2.38c1.5-1.43,1.6-2.54.42-4.28-1.58-.07-2.18.35-2.72,1.85l1.24,1.3-.27.33-1.7-.49a4.93,4.93,0,0,1,3.33-5.37l.49,1.18c1-.78.9-1.26-.2-1.89-.86-.5-1.74-1-2.61-1.43l.09-.5,1.65-.42,1.56,1.45c.31-2.7.62-5.14.86-7.58a5.27,5.27,0,0,0-.3-1.5l-2.31.41,2.91-3.38v1.45c1.32-1.18,1.48-2.87.46-3.8l-.39,1.94-1.34-.2-1.05.79.37-6h-4.48l.83-1.7,3.52,1c.33-1.65-.08-2.14-1.67-2.32-.8-.09-1.8.19-2.31-1l2.78-.16V73.44l-3.89.27L111.25,78l.79,1.36-.71.81c1.3,1.53,3.55-.63,4.67,1.7ZM61.63,90.5a3.66,3.66,0,0,0,3-2.94,5.3,5.3,0,0,0-2.05-5.36,12.83,12.83,0,0,1-1-.86c-2.86.09-5.33,2.49-5,5.13a5.44,5.44,0,0,0,2.26,4,18.78,18.78,0,0,0,2.61,1.25ZM44.5,45.78a5.75,5.75,0,0,1-4.05,3.07l.32,1.5-1.41.25c-.43,1.6-.59,3.33-2.59,3.74l.56,2.17-2.25,1.62.08.36,2.67.4c0-2.84,0-2.91,3.14-3.78l-.13-1.7L39.57,55H38.3c3.92-5.36,9.43-8.86,13.71-13.4l-.91-1.65,2.9-.14L57,38c-2.55-.9-4.64.22-6.8.65l-.11,1.53L48.31,41.4l.71,1-2.8,1.41L44.37,43l-1,1.44ZM56,102.9c3.24,1.15,6.19-.1,7.1-3a4.57,4.57,0,0,0-1.18-4.72,3.85,3.85,0,0,0-4.32.1C54.73,97,54.07,100,56,102.9Zm-3.6-3.83,5.13-7.13c-.93-1.95-2.79-2-4.21-2.17a9.22,9.22,0,0,1-1.15.78,5,5,0,0,0-2.87,6.08A2.88,2.88,0,0,0,52.38,99.07ZM63.24,33.94l-.28.32-4.64-1.12.07-.31H56.28l-.76,1.55c1.06-.05,1.82-.06,2.56-.13,1.72-.17,2.13.06,2.51,1.66H57.78l0,.56c1.49,1.24,2.88-1,4.22-.32,2.11-3.78,5.65-1.57,8.39-2.37l-.2-1.36L72.38,32c-.2-1.31.09-1.54,2-1.55,2.09,0,2.36-.31,2.13-2.4H74.39c-.33,1.89-1.7,2.19-3.36,2l.18,1.15-5.89,2.27c.77-3.09,3.27-3.28,5.4-4.32l-2.2-.81c-1.53,2.46-3.82,3.42-6.09,4.23ZM52.33,54.11a5.28,5.28,0,0,0,1.11,4.45,3.44,3.44,0,0,0,4.53.56c1.23-.87,1.48-2.34.68-4C57.36,52.51,54.8,52.06,52.33,54.11ZM42,71.28a6.14,6.14,0,0,0,4.63,0,2.68,2.68,0,0,0,.92-4.3c-1.21-1.31-3.92-1.36-5.48-.1C40.77,67.93,40.72,69.33,42,71.28ZM54.28,85.77l2.4-4.39c-2-1.94-4.15-2.14-6.57-2.17,0,1.23-.07,2.34,0,3.45C50.3,85.07,51.7,86.14,54.28,85.77ZM38.76,64.45,37.49,60.2a3.79,3.79,0,0,0-2.38,2.67,5.68,5.68,0,0,0,1.6,5.83c-3.53.85-4.38,2.09-3,4.19,1.48,0,1.88-.24,2.15-1.23l-1.54.45-.12-.27,1-1.39,1.83.43,3-4.61L38.1,67l.48-.52-2.47-1.58ZM49.82,88.34c-2-1.24-3.79-1.27-5.45-.18s-1.06,3.13-1.31,4.68c1.59,1.77,2.93,1.84,4.2.08A44,44,0,0,0,49.82,88.34Zm-10,15.4c-.6-1-1.22-2-1.78-3.09a2.54,2.54,0,0,1,.33-3.16l1,2.53.37-.06c-1.22-2.47-.45-4.89.28-7.6-4.19,1.44-3.4,4.78-3.68,7.71L33.81,100l.38-4-1.3.68v5.28l3.75-.93C37.37,101.77,37.54,103.74,39.8,103.74ZM56.35,70.06c1.89-.23,3-1.16,3.05-2.7s-1.1-2.69-2.89-3A3.06,3.06,0,0,0,52.94,66a2,2,0,0,0,.7,2.73A25,25,0,0,0,56.35,70.06ZM49.59,57.35c.84-2.24.56-3.68-.67-4.72a4.24,4.24,0,0,0-4.45-.53,3,3,0,0,0-1.55,3.3Zm-5.24,5.79c0-1.72,1.83-2.93,1.24-4.74-2.23-1.06-4.18-.86-5.31.49s-1,3.14.44,4.95Zm3,2.32a3.83,3.83,0,0,0,4.42-1c.92-1,1.53-2.25.79-3.56l-4.1-1.18C46.34,61.31,46.69,63.31,47.3,65.46Zm6.41,7.25c-1.22-1.65-2.4-2-3.89-1.47s-2.71,2.12-2.37,3.24c.57,1.88,2.32,2.14,3.84,2.61.37-.84.63-1.6,1-2.29S53.24,73.41,53.72,72.72Zm12.61,4.9c-.41-2.9-2.19-4.34-5-4.11-1.35,1.44-1.15,3.07.56,4.49S65.09,79.25,66.33,77.62ZM53.59,75.55l4.42,5c.49-2.56,1.17-4.84-.19-7C55.62,73.15,54.36,73.86,53.59,75.55Zm-5.5,3.71-4.32-.69-.1.42,1.17.89-.75,2.33-1.45-.31-.54,1.41L44.41,83l.55,1.9,3.13-1.29Zm-11.75,27.2,3.36.73-.08-1.6c-1.79-.61-4.09.06-4.45-2.6a2.46,2.46,0,0,0-.6.06,5,5,0,0,0-.7.43l1.64,7.42,1.16-.43C36.82,109,35.27,107.73,36.34,106.47ZM40.52,116l-.37-3.79c1.57-.69,2.5-1.77,2.11-2.58l-.95.07-.6,2-2.55-1c-1.32,2,.07,3.69-.33,5.63Zm-9.2-28.76.12.44,3.09-.33a17.15,17.15,0,0,1,.44-2,12,12,0,0,1,.77-1.48L34.18,83v-1.6l-2.57,1.34,1.5,1.4-1.26.91,2,.74Zm49.89,55.37L81,143c.64,1.58,3.81,3.37,5.73,3.2l.34-.73c1.44,0,2.88.77,4.22-.31-.44-1.25-1.36-1.3-2.33-1.08s-2.16.67-3.26.88A2.1,2.1,0,0,1,83,143.77C82.73,143.23,81.82,143,81.21,142.65ZM42.57,77.17l3.08-1.57c-1-2.21-2-2.83-4-2.51Zm69-12.91.24-.34V56.16c-.5.26-.89.37-.89.49,0,1.52,0,3,0,4.56l-1.72.43Zm-70.89,27,1-5.11-2.05-.92v5.52ZM38,73.13l-.3-.15-2,3.44c.17,1.19.28,2.16.45,3.11s.4,1.82.61,2.72l.47-.08C36,79,37,76.08,38,73.13Zm4.38,26.62-1-5c-.87,0-1.07.3-1.13,1.66C40.1,98.29,40.94,99.53,42.34,99.75Zm37.78,48.13.58-2.93-2.91-.29v1.94Zm-45.59-52,.73-1.4c-1.82-.6-.41-2-.88-3l-1.93.2C32.4,93.42,33.83,94.32,34.53,95.84Zm8.34,10.89c-1.54-.28-3.4.73-4.7,2.48A5.69,5.69,0,0,0,42.87,106.73Zm-7-19.66v4.34l1.54.08.25-1.19-1.44-.66,1-2.17Zm-4.27,2.21-.23.4c.46.34.9.93,1.38,1,1,.06,1.79-.38,2-1.85Zm-.47-9.17.54.74c.9,0,1.76.15,2-1L29.58,79l-.13.35Zm57.25,63.13-.06-.28-5.45-1.47.33,1.21Zm-4.11,3.95c-1-1.14-2-1-2.71.54l1.4.58Zm-28-111-.37-.62L54.33,35l-.41.27L54.41,37Zm-13.69,67,.56-1.2-3.37-1.51ZM38.9,76.7c1.38.67-.92,2.36.64,2.88l1-2.88Zm-.74,42.24c1,.36,1.62.09,1.84-.73a3.22,3.22,0,0,0-.2-1.24l-.41,0Zm21.3-86.5.23.21,2.64-2.21h-2Zm45.65,102.21-1.32-.48v1.67l-.89.8,1.18.17ZM38,80.87l2.2,2.42.21-.14-.71-2.28ZM27.87,87l.36.37c.39-.34,1.06-.64,1.11-1a4.38,4.38,0,0,0-.49-1.71l-.3.18Zm5.78-8.39L34,78.3V76.46l-2,.84Zm87,15.12.26-.21.75.94V92.84l-1.61-.15.49,2.65.53-.1Zm-4.95-22.6c-1.15-.86-1.76-.28-2.49.47l1.2.54Z"/><path class="cls-1" d="M104.36,17.5a6,6,0,0,1-5.43,5.73,3.6,3.6,0,0,1-3.69-3.53c-.21-2.82,3-6.13,5.79-6C103.12,13.79,104.33,15.17,104.36,17.5Z"/><path class="cls-1" d="M78.23,167.73a23.61,23.61,0,0,1-1.91,4.2c-1.37,1.93-3.82,1.84-5.34,0a7.47,7.47,0,0,1-.76-7.2,3.51,3.51,0,0,1,4-1.88,3.93,3.93,0,0,1,3.58,3.34c.07.44.07.9.11,1.35Z"/><path class="cls-1" d="M44.22,17.84c0-2.65,1.5-4.24,4-4.24a5,5,0,0,1,4.88,5.21c0,2.88-1.5,4.75-3.84,4.78C46.75,23.62,44.22,20.73,44.22,17.84Z"/><path class="cls-1" d="M19.88,134.36l-1.44-2.67,2.39-.11a7.73,7.73,0,0,1,2.35.12Z"/><path class="cls-1" d="M90.59,38.12l-1-1.36c1.57-.19,2.89-.31,4,1-.58,1.28-1.65.6-2.51.64Z"/><path class="cls-1" d="M92.4,87.44a9.4,9.4,0,0,0,1.59.07c2.14-.27,4.27-.69,6.42-.83a12.44,12.44,0,0,1,3.13.6l-.07.5-1.18.13L101,90l-.37-.07c-.09-.39-.2-.78-.26-1.18s-.05-.73-.08-1.09l-.33,0-.37,1.22-1.12-1.32-4.41,1-.21.51a6.77,6.77,0,0,0,1.62,1.25c1,.35,2,.42,3,.68a19.66,19.66,0,0,1,2,.75,3.53,3.53,0,0,1-4.35.43c-2.58-1.24-4.44-3.33-6.41-5.53l12.37-3.56a4.53,4.53,0,0,0-4.22-.42c-1.83.62-3.57,1.49-5.34,2.26-1.45.63-2.9,1.29-4.55.77a11.1,11.1,0,0,1-1.15-.59l11.12-4.67-2.24-1.9a6.92,6.92,0,0,1,7,.46c1.62,1.35,2.07,3.4,1.3,5.72l-11.55,2Z"/><path class="cls-1" d="M86.06,50.2c2,1.85-.61,3.24-.32,5.11,1.95-1.42,2-3.74,3.3-5.31,1.59,1.56,0,5.64-3,7.52a3.64,3.64,0,0,1-.48-.58,6.09,6.09,0,0,1-.3-1L83,57.73C82.71,54.65,85.65,53,86.06,50.2Z"/><path class="cls-1" d="M81.68,49.87c1,3.74-2.61,9.61-7.64,11.89l2.65-3.68c.95-1.31,2-2.57,2.83-3.95S80.93,51.35,81.68,49.87Z"/><path class="cls-1" d="M69.77,63.54c-.21-2,.76-3.41,1.7-4.85,1.24-1.9,2.42-3.84,3.59-5.72C76.6,54.4,74,60,69.77,63.54Z"/><path class="cls-1" d="M96.41,95.26c-.49-1.34-1.81-1.21-3-1.59-.54-2.27-2.29-2.9-4.65-2.84a2.45,2.45,0,0,1,3.2-.31c.83.45,1.53,1.13,2.36,1.56,1.4.72,2.87,1.32,4.46,2A2.8,2.8,0,0,1,95,96.78Z"/><path class="cls-1" d="M101.07,135.28l-3.59.46,1.21,1.48-3.56.67-.24-.36c1.08-1.45,1.93-3.11,3.84-3.78.82-2.25,1.71-2.55,3.33-.86l-2.13.9,1.15,1Z"/><path class="cls-1" d="M99.54,46.86a2.82,2.82,0,0,1-.06,3.24,13.56,13.56,0,0,1-4.91,4.71C95.81,52,97.78,49.61,99.54,46.86Z"/><path class="cls-1" d="M112.86,98.52l-.25,1.42c-.46-.54-1-.89-1-1.29-.1-1.18.83-1.6,1.79-1.82,1.33-.31,1.88.07,2.21,1.5Z"/><path class="cls-1" d="M116.79,94.87h-4c-.08-1.07.71-1.79,2.18-1.85S116.83,93.45,116.79,94.87Z"/><path class="cls-1" d="M113.92,90.4l2.67-.91.18-.5,1.13,2.05c-1.63,1-2.78.29-3.94-.25Z"/><path class="cls-1" d="M109.12,114.59l-4.39.76a1.53,1.53,0,0,1,1.12-1.74A2.55,2.55,0,0,1,109.12,114.59Z"/><path class="cls-1" d="M107.18,119.76l-.49,1.27c-.81-.84-1-1.64,0-2.44s2.24-.71,3.23.66Z"/><path class="cls-1" d="M106.46,124.72,103.78,123c1.16-1.34,1.72-1.22,3.59.61Z"/><path class="cls-1" d="M85.17,137.23c-.06,2.05-1.77,1.55-2.82,2.06C82.28,137.5,83.1,136.88,85.17,137.23Z"/><path class="cls-1" d="M105.14,126.27h-3l1.07-2.21C104,124.73,105.34,124.76,105.14,126.27Z"/><path class="cls-1" d="M101.56,120.65l.08,1-2.88.5-.28-2Z"/><path class="cls-1" d="M69.38,40.76c-.47,1.85-1.55,2.47-3.42,2C66.61,41.35,68,41.16,69.38,40.76Z"/><path class="cls-1" d="M113,81.84,115.66,84a1.32,1.32,0,0,1-2.19.09c-.6-.59-1.38-1.29-.4-2.23Z"/><path class="cls-1" d="M114.33,109.38l-2.73-.18-.17-1.08C113.4,107.22,114.26,107.6,114.33,109.38Z"/><path class="cls-1" d="M103.69,119.47l-2.64.68c-.06-1.34.84-1.71,1.74-1.84.37-.05.82.5,1.24.78Z"/><path class="cls-1" d="M71,42.44c.39-1.16,1.07-1.81,2.35-1.6C73.62,42.41,73.11,42.76,71,42.44Z"/><path class="cls-1" d="M105.16,116.32v1.53h-2.55A2,2,0,0,1,105.16,116.32Z"/><path class="cls-1" d="M80.94,33.28c-2,1.09-3.47.63-3.57-1.11C79.31,31.08,80.88,31.57,80.94,33.28Z"/><path class="cls-1" d="M97.25,39.48c-1.52.6-2-.7-2.89-1.27.16-1.06.89-1.16,1.61-.95A1.71,1.71,0,0,1,97.25,39.48Z"/><path class="cls-1" d="M90.13,35.89a7.41,7.41,0,0,1-1.86.69,1.57,1.57,0,0,1-1.84-1.36C87.59,34.25,88.33,34.32,90.13,35.89Z"/><path class="cls-1" d="M87,32.12c2.39.41,2.39.41,2.43,1.83C87.47,34.49,86.64,33.86,87,32.12Z"/><path class="cls-1" d="M94.43,40.25l2.15-.41c.3,1.54-.23,1.93-2.15,1.77Z"/><path class="cls-1" d="M53.48,91.38c0,1.91-.47,2.4-2.27,2.38C50.9,92,51.74,91.07,53.48,91.38Z"/></g></g></svg>