<svg xmlns="http://www.w3.org/2000/svg" viewBox="0 0 147.2 92.3"><defs><style>.cls-1{fill:#353535;}</style></defs><title>michelin</title><g id="Layer_2" data-name="Layer 2"><g id="Layer_1-2" data-name="Layer 1"><path class="cls-1" d="M69.4,54.52c-5.08,0-9.21-4.72-9.21-10.52,0,0,0-.07,0-.1l-.3.2a10.84,10.84,0,0,1-8.2,1.44,8.64,8.64,0,0,1-5.46-3.93c-2.64-4.39-.83-10.43,4-13.45a5.38,5.38,0,0,1,.88-.44,8.09,8.09,0,0,1-.95-.5c-4.87-3-6.68-9.06-4-13.46a8.65,8.65,0,0,1,5.46-3.93,10.88,10.88,0,0,1,8.2,1.44q.29.18.58.39a6.64,6.64,0,0,1-.1-1.12C60.3,4.72,64.43,0,69.51,0s9.21,4.72,9.21,10.53a7.49,7.49,0,0,1-.14,1.42c.3-.22.62-.43.93-.63a10.86,10.86,0,0,1,8.21-1.44,8.64,8.64,0,0,1,5.45,3.93c2.64,4.39.83,10.43-4,13.46a6.86,6.86,0,0,1-1,.53,5.47,5.47,0,0,1,.73.38c4.87,3,6.68,9.06,4,13.46a8.65,8.65,0,0,1-5.46,3.93,10.84,10.84,0,0,1-8.2-1.43,6.07,6.07,0,0,1-.61-.43c0,.1,0,.2,0,.3C78.61,49.79,74.47,54.52,69.4,54.52ZM63.76,39.25A12.29,12.29,0,0,0,62.38,44c0,4.59,3.15,8.33,7,8.33s7-3.74,7-8.33a13.36,13.36,0,0,0-1.5-5c-.84-1.4-1.65-2.93-2.4-4.41A1.14,1.14,0,0,1,73.12,33a1.07,1.07,0,0,1,1.3.43A51.11,51.11,0,0,1,76.87,38a13.9,13.9,0,0,0,3.49,4.27,8.63,8.63,0,0,0,6.53,1.17A6.47,6.47,0,0,0,91,40.5c2-3.37.54-8.06-3.32-10.46-1.54-1-4.85-1-7.89-.92-.7,0-1.42,0-2.19,0h-.19a1.1,1.1,0,0,1,0-2.2h.19l1.65,0h.42c4-.12,6.92-.65,8.33-1.52,3.85-2.4,5.34-7.09,3.31-10.46A6.45,6.45,0,0,0,87.21,12a8.67,8.67,0,0,0-6.53,1.17A14.2,14.2,0,0,0,76,17.94l-.39.7L74.87,20a1.1,1.1,0,0,1-1.95-1c.37-.76.76-1.47,1.18-2.13,1.3-2.35,2.43-4.55,2.43-6.35,0-4.59-3.15-8.33-7-8.33s-7,3.74-7,8.33c0,1.9,1.42,4.18,3.06,6.83l1,1.66a1.1,1.1,0,0,1-1.88,1.14c-2.08-3.38-4.28-5.95-6-7A8.64,8.64,0,0,0,52.14,12,6.46,6.46,0,0,0,48,14.88c-2,3.37-.54,8.06,3.32,10.46A16.57,16.57,0,0,0,57.85,27h1c.73,0,1.47,0,2.19,0h0a1.1,1.1,0,0,1,1,.63,1.23,1.23,0,0,1,0,1.12,1.12,1.12,0,0,1-.9.57h0c-.66,0-1.89,0-3.35-.16-2.57,0-5.08,0-6.36.84-3.86,2.4-5.34,7.09-3.32,10.46A6.46,6.46,0,0,0,52.2,43.4a8.67,8.67,0,0,0,6.53-1.17,12.59,12.59,0,0,0,3.11-4.05,49.12,49.12,0,0,1,2.36-4.44l.17-.34a1.1,1.1,0,0,1,2,.82,2.21,2.21,0,0,1-.14.34l-.14.23-.3.59C65.16,36.66,64.47,38,63.76,39.25Z"/><path class="cls-1" d="M0,70.46H5.08l6.74,17.84,6.61-17.84H23.5V91.94H20.43V73.35h-.06L13.26,91.94h-3L3.14,73.35H3.08V91.94H0Z"/><path class="cls-1" d="M29,70.46h3.08V91.94H29Z"/><path class="cls-1" d="M52.37,74a8.65,8.65,0,0,0-4.43-1.2c-5,0-8.25,3.57-8.25,8.4a8,8,0,0,0,8.09,8.4,10.56,10.56,0,0,0,4.68-1l.18,3a13.41,13.41,0,0,1-4.89.77c-6.8,0-11.32-4.37-11.32-11.2,0-6.61,4.8-11,11.35-11a11.89,11.89,0,0,1,4.83.92Z"/><path class="cls-1" d="M57.4,70.46h3.08v9H70.75v-9h3.08V91.94H70.75V82.16H60.48v9.78H57.4Z"/><path class="cls-1" d="M79,70.46h12v2.71h-9v6.27h8.15v2.71H82.12v7.07h9v2.71H79Z"/><path class="cls-1" d="M97.6,70.46h3.08V89.23h9v2.71H97.6Z"/><path class="cls-1" d="M112.53,70.46h3.08V91.94h-3.08Z"/><path class="cls-1" d="M121.92,70.46h4.19l9.47,17.29h.06V70.46h3.08V91.94h-3.94l-9.72-17.65H125V91.94h-3.08Z"/><path class="cls-1" d="M140.41,73.49a3.4,3.4,0,1,1,3.4,3.4A3.4,3.4,0,0,1,140.41,73.49Zm6,0a2.58,2.58,0,1,0-2.57,2.74A2.61,2.61,0,0,0,146.38,73.49Zm-3.88-1.94h1.43c.92,0,1.42.32,1.42,1.13a1,1,0,0,1-1,1l1,1.69h-.74l-1-1.66h-.43V75.4h-.72Zm.72,1.65h.63c.42,0,.79-.06.79-.58s-.41-.52-.78-.52h-.64Z"/></g></g></svg>