<svg xmlns="http://www.w3.org/2000/svg" viewBox="0 0 197.33 111.71"><defs><style>.cls-1{fill:#353535;}</style></defs><title>press</title><g id="Layer_2" data-name="Layer 2"><g id="Layer_1-2" data-name="Layer 1"><path class="cls-1" d="M98,41.51h1.59l.09,1.27.76.67c1.24,0,2.5,0,3.76,0,1,0,2,.16,3.06.21a13.2,13.2,0,0,0,1.61-.09c.23,0,.46-.11.69-.11a.71.71,0,0,1,.77.71.72.72,0,0,1-.68.8,3.88,3.88,0,0,1-.74-.09c-.67,0-1.33-.11-2-.09-1.64,0-3.28.14-4.93.21-.44,0-.89,0-1.29,0l-.54.88.26.39-.43.21.4.45-.31.37.28.36-.29.42h2.06l.11-.84h2.43l.13,1.18.63.1v.76l-.63.12v6.36l.53,0V51.5h2.53v4.1l.41.38,0,.53c.6.64.6.74,0,1.27l0,.51c-.63.37-.33,1-.34,1.5,0,2.6,0,5.2,0,7.8a3.87,3.87,0,0,0,.17.8l.16,0,.05.57c.6.53.6.67,0,1.24l0,.51-.1,0a3,3,0,0,0-.25.8c0,1.31,0,2.63,0,4.06h9v3.18H80.88V75.56h9V71l-.31-.22-.08-.54c-.41-.5-.67-.62-.12-1.14l.42-.95.12,0V58.72l-.5-.85c-.46-.68-.46-.75-.06-1.17l.42-1,.17,0V51.48h2.52v4.26l.57.05V49.4l-.61-.12V48.5l.62-.09.08-1.19h2.48l.12.86h1.89l-.18-.35.38-.26L97.35,47l.52-.29-.49-.35.26-.37L97,45c-1.27,0-2.59,0-3.9,0-.79,0-1.58-.17-2.36-.19s-1.37,0-2.06.09c-.13,0-.28.12-.39.08a1.8,1.8,0,0,1-.85-.35.79.79,0,0,1,0-.78,1.56,1.56,0,0,1,.84-.36c.17,0,.37.08.56.11a4.19,4.19,0,0,0,1.21.1c2.31-.43,4.64-.16,7-.24h.28l.81-.69ZM96.13,68.14V58.46h-.56v9.68Zm5.6-9.68v9.66h.58V58.46Zm-1.59-8,.3.37-.55.48h1.82v4.5h.6v-6h-1.81Zm-2.46-.61H95.56v6l.6-.05V51.26H97.6l-.23-.44.44-.23,0-.17-.47-.21Zm7.67,18.31V58.42l-.5.06v9.65Zm-6.69-9.66v9.62a1.41,1.41,0,0,0,.29.08.8.8,0,0,0,.24-.07V58.47ZM93,68.13V58.43l-.5,0v9.65ZM101.73,71v4.46h.57V71Zm-6.17,4.51.56,0V71l-.56,0Zm9.28-4.5v4.46h.51V71Zm-5.66,4.46V71a.82.82,0,0,0-.25-.06,1.17,1.17,0,0,0-.26.09v4.4ZM93,71l-.52.07v4.42H93ZM99.63,45H98C98.62,45.69,99.17,45.69,99.63,45Z"/><path class="cls-1" d="M59.89,26.78l.7,5.54-2.52.35-2-14.34c.82-.12,1.57-.25,2.34-.34q5.14-.59,10.28-1.15c1.94-.21,3,.75,3.15,2.69.06,1,.16,2,.25,3,.16,2-.65,2.94-2.62,3.15l-2.22.25,6.94,4.79-.06.18c-1.15.09-2.3.2-3.45.26-.18,0-.37-.18-.54-.3-1.89-1.43-3.76-2.87-5.67-4.28a1.5,1.5,0,0,0-1-.23C62.35,26.45,61.15,26.62,59.89,26.78Zm-.26-2c3-.34,5.94-.66,8.84-1,.77-.09,1.1-.6,1-1.42-.06-.64-.15-1.27-.2-1.91-.11-1.28-.45-1.62-1.73-1.49-2.18.22-4.35.47-6.53.72-.64.07-1.29.18-2,.28Z"/><path class="cls-1" d="M157.27,30.76,156.88,33l10.56,2.18.91-4c-.31-.09-.57-.18-.85-.24L159,29.18l-.28-.07c-2.05-.53-2.6-1.33-2.31-3.45.1-.71.22-1.42.37-2.12.46-2.11,1.41-2.81,3.53-2.41,3,.56,6,1.22,9,1.84.11,0,.22.07.33.1,2,.61,2.66,1.95,1.88,4h-2.25l.37-2L159.26,23l-.73,3.83,2.7.55c2.22.46,4.44.92,6.65,1.4a6.9,6.9,0,0,1,1.32.43,2.11,2.11,0,0,1,1.39,2.42,30.36,30.36,0,0,1-.9,3.9A2.13,2.13,0,0,1,167,37.23c-2.06-.34-4.1-.81-6.15-1.22-1.25-.25-2.51-.49-3.76-.77a6.73,6.73,0,0,1-1.36-.48,1.64,1.64,0,0,1-1-1.34c-.07-.81,0-1.64,0-2.51Z"/><path class="cls-1" d="M137.49,21.18l-2.22.34.17-2.11L125,18.4l-.32,3.87,1.92.2,7.53.72.23,0c2.36.36,3.09,1.37,2.73,3.74-.14.92-.21,1.85-.41,2.76a2.22,2.22,0,0,1-2.56,2c-1.33,0-2.66-.23-4-.35l-6-.56a6.49,6.49,0,0,1-.91-.16,2.12,2.12,0,0,1-1.8-2c-.06-.63,0-1.27,0-2l2.41-.39-.11,2.28,10.66,1,.48-4.1c-.51-.07-1-.14-1.48-.19-2.78-.27-5.56-.52-8.33-.82-2-.21-2.67-1-2.64-3a23.17,23.17,0,0,1,.24-3,2.22,2.22,0,0,1,2.54-2.16c1.8.06,3.6.23,5.39.39,1.56.14,3.13.28,4.68.54C137.31,17.73,138.08,19.06,137.49,21.18Z"/><path class="cls-1" d="M90.23,15.45h14.68v2H93v3.86h7.2v2H93.16v4.48h11.68v2.11H90.65Z"/><path class="cls-1" d="M26.56,38.64,23.12,24.57c.55-.14,1-.27,1.52-.37,3.73-.82,7.45-1.66,11.19-2.42a2.36,2.36,0,0,1,3.09,2.09c.27,1.27.53,2.54.7,3.83a2.17,2.17,0,0,1-1.75,2.62c-1.4.39-2.83.65-4.25,1l-5.85,1.31L29,38Zm.73-8.06a2.68,2.68,0,0,0,.3,0c2.78-.61,5.57-1.21,8.34-1.85.86-.2,1.11-.66.95-1.57-.12-.67-.26-1.33-.41-2-.25-1.11-.67-1.38-1.79-1.15l-3.07.65-5.42,1.22Z"/><path class="cls-1" d="M46.49,91.75l-.67.15-.25-.51H42.71v1h2.55c.46,0,1.09-.09,1.21.44a5.63,5.63,0,0,1,0,2c0,.15-.47.33-.73.33-1,0-2.09,0-3.14,0-.77,0-1-.38-.91-1.26l.77-.16.18.6h3.11V93.23H43.14A1.42,1.42,0,0,1,41.93,91a.81.81,0,0,1,.55-.36c1.12,0,2.24-.07,3.36,0C46.45,90.64,46.63,91,46.49,91.75Z"/><path class="cls-1" d="M100.43,94.36v.74h-4.6V90.57h4.53v.74H96.83v1H98.9v.83H96.81v1.18Z"/><path class="cls-1" d="M126.36,94.35v.75h-4.58V90.58h4.54v.76h-3.53v1h2.07l.07.8h-2.13v1.19Z"/><path class="cls-1" d="M87,95.12h-.9V93.26H82.7l-.09,1.85-.88,0V90.62h.88l.08,1.7H86l.09-1.7.89,0Z"/><path class="cls-1" d="M139.37,90.58h.84v4.67a3.9,3.9,0,0,1-1-.42c-1.14-1-2.24-2-3.41-3V95.1H135V90.65a.77.77,0,0,1,1,.18l3,2.71.32.27Z"/><path class="cls-1" d="M154.73,95.12h-1l-.59-1h-3l-.58,1h-1l2.62-4.54H152Zm-3.15-3.72-1,1.87h2.06Z"/><path class="cls-1" d="M57.78,91.34v3.77h-.93V91.36H54.79v-.77h5.1l0,.75Z"/><path class="cls-1" d="M109.93,94.35h3.47l.05.74H109V90.58h.89Z"/><path class="cls-1" d="M2.43,111.66H0v-2.43H2.43Z"/><path class="cls-1" d="M197.26,111.66h-2.38v-2.44h2.38Z"/><path class="cls-1" d="M197.27.07V2.45h-2.38V.07Z"/><path class="cls-1" d="M0,2.46V.06H2.42v2.4Z"/><path class="cls-1" d="M2.49,6.28v.94H.06V6.28Z"/><path class="cls-1" d="M25.23,109.21h.92v2.44h-.92Z"/><path class="cls-1" d="M2.49,72.8v.92H0l0-.92Z"/><path class="cls-1" d="M.05,76.84v-.91H2.49l0,.91Z"/><path class="cls-1" d="M2.47,78.48H.06v-.93H2.47Z"/><path class="cls-1" d="M.05,80.67H2.5l0,.93H.05Z"/><path class="cls-1" d="M23,111.66h-.92v-2.43H23Z"/><path class="cls-1" d="M18.23,111.66h-.91v-2.45h.91Z"/><path class="cls-1" d="M15.07,111.67h-.92v-2.43h.92Z"/><path class="cls-1" d="M0,84.78v-.92H2.47v.92Z"/><path class="cls-1" d="M0,86.38v-.92H2.48v.92Z"/><path class="cls-1" d="M13.47,109.23v2.42h-.92v-2.42Z"/><path class="cls-1" d="M0,89.52v-.91H2.49v.91Z"/><path class="cls-1" d="M2.5,91.77v.92H.07v-.92Z"/><path class="cls-1" d="M2.5,93.38v.91H.05v-.91Z"/><path class="cls-1" d="M2.5,96.52v.92H.05v-.92Z"/><path class="cls-1" d="M0,100.61V99.7H2.49l0,.92Z"/><path class="cls-1" d="M2.49,105.37H.05v-.93H2.49Z"/><path class="cls-1" d="M0,108.53v-.91H2.49v.91Z"/><path class="cls-1" d="M5.55,109.17v2.49H4.62v-2.45Z"/><path class="cls-1" d="M10.29,111.65H9.37v-2.44l.92,0Z"/><path class="cls-1" d="M2.49,3.14V4H0V3.14Z"/><path class="cls-1" d="M0,10.36V9.43H2.48v.93Z"/><path class="cls-1" d="M0,12V11H2.48V12Z"/><path class="cls-1" d="M0,15.11v-.92H2.48v.92Z"/><path class="cls-1" d="M0,18.28v-.91H2.49v.91Z"/><path class="cls-1" d="M2.54,19.89H.05V19H2.5Z"/><path class="cls-1" d="M0,23V22.1H2.48V23Z"/><path class="cls-1" d="M0,26.19v-.9H2.49v.9Z"/><path class="cls-1" d="M2.49,30v.92H.06V30Z"/><path class="cls-1" d="M.05,34.1v-.91H2.49l0,.91Z"/><path class="cls-1" d="M2.5,37.94v.92H0v-.92Z"/><path class="cls-1" d="M2.49,41.12V42H.06v-.92Z"/><path class="cls-1" d="M2.5,45.87v.91H.05v-.91Z"/><path class="cls-1" d="M.05,49.94V49H2.49l0,.91Z"/><path class="cls-1" d="M0,54.71v-.92H2.48v.92Z"/><path class="cls-1" d="M2.49,57v.91H.05L0,57Z"/><path class="cls-1" d="M.05,61.69H2.49v.93H.05Z"/><path class="cls-1" d="M0,65.79v-.91H2.49v.91Z"/><path class="cls-1" d="M2.49,68v.92H0L0,68Z"/><path class="cls-1" d="M.05,69.61H2.49v.93H0Z"/><path class="cls-1" d="M121.3,111.66h-.91v-2.45h.91Z"/><path class="cls-1" d="M126.06,109.23v2.42l-.92,0v-2.47Z"/><path class="cls-1" d="M129.22,111.65h-.92v-2.44h.92Z"/><path class="cls-1" d="M129.91,109.21h.92v2.44h-.92Z"/><path class="cls-1" d="M133.08,109.21H134v2.44h-.92Z"/><path class="cls-1" d="M137.14,111.65h-.92v-2.44h.92Z"/><path class="cls-1" d="M138.75,111.66h-.91v-2.45h.91Z"/><path class="cls-1" d="M141,109.2h.91v2.45H141Z"/><path class="cls-1" d="M145.75,109.21h.91v2.44l-.91,0Z"/><path class="cls-1" d="M148.92,109.2h.91v2.45h-.91Z"/><path class="cls-1" d="M151.44,111.67h-.92v-2.43h.92Z"/><path class="cls-1" d="M153.68,111.71v-2.49h.93v2.44Z"/><path class="cls-1" d="M156.83,111.65v-2.44h.93v2.44Z"/><path class="cls-1" d="M158.45,109.21h.92v2.45l-.92,0Z"/><path class="cls-1" d="M162.55,109.21v2.44l-.93,0v-2.49Z"/><path class="cls-1" d="M167.27,111.65h-.91v-2.44l.91-.05Z"/><path class="cls-1" d="M169.53,109.21h.9v2.45h-.9Z"/><path class="cls-1" d="M172,111.66h-.91v-2.45l.91-.06Z"/><path class="cls-1" d="M177.44,109.21h.92v2.44h-.92Z"/><path class="cls-1" d="M179.05,109.21H180v2.44h-.91Z"/><path class="cls-1" d="M182.22,109.2h.92v2.44h-.92Z"/><path class="cls-1" d="M187,109.21h.92v2.45l-.92,0Z"/><path class="cls-1" d="M190.14,109.2h.91v2.43h-.91Z"/><path class="cls-1" d="M191.73,111.7v-2.47h.94v2.43Z"/><path class="cls-1" d="M27.78,109.22v2.42h-.95v-2.42Z"/><path class="cls-1" d="M34.09,109.21v2.43h-.93v-2.43Z"/><path class="cls-1" d="M35.68,111.66h-.92v-2.44h.92Z"/><path class="cls-1" d="M37.93,109.21h.9v2.45h-.9Z"/><path class="cls-1" d="M42.67,111.64v-2.42h.93v2.42Z"/><path class="cls-1" d="M46.76,111.65h-.92v-2.44h.92Z"/><path class="cls-1" d="M54.69,109.17v2.49h-.93v-2.44Z"/><path class="cls-1" d="M56.26,111.65h-.89v-2.43l.89-.07Z"/><path class="cls-1" d="M58.54,109.2h.91v2.44h-.91Z"/><path class="cls-1" d="M63.3,109.21h.92v2.44H63.3Z"/><path class="cls-1" d="M67.37,111.66h-.91v-2.43h.91Z"/><path class="cls-1" d="M68.05,111.65v-2.41H69v2.41Z"/><path class="cls-1" d="M75.26,111.66h-.87v-2.46h.87Z"/><path class="cls-1" d="M76,109.2h.92v2.45l-.92,0Z"/><path class="cls-1" d="M80.06,111.65h-.91V109.2h.91Z"/><path class="cls-1" d="M84.83,111.67h-.92v-2.43h.92Z"/><path class="cls-1" d="M87.09,109.21H88v2.45l-.91,0Z"/><path class="cls-1" d="M92.75,111.66h-.92v-2.45h.92Z"/><path class="cls-1" d="M95.9,111.65H95V109.2h.9Z"/><path class="cls-1" d="M96.59,109.2h.93v2.44h-.93Z"/><path class="cls-1" d="M99.76,109.2h.92v2.44h-.92Z"/><path class="cls-1" d="M105.43,111.65h-.91v-2.44l.91-.05Z"/><path class="cls-1" d="M108.61,109.17v2.49h-.93v-2.45Z"/><path class="cls-1" d="M116.52,111.66h-.91v-2.45h.91Z"/><path class="cls-1" d="M117.2,111.7v-2.47h.94v2.43Z"/><path class="cls-1" d="M72.14,111.66h-.9v-2.44h.9Z"/><path class="cls-1" d="M51.52,111.66h-.9v-2.44h.9Z"/><path class="cls-1" d="M174.3,109.21h.9v2.44h-.9Z"/><path class="cls-1" d="M113.32,111.65h-.86v-2.44h.86Z"/><path class="cls-1" d="M30.91,111.66H30V109.2h.89Z"/><path class="cls-1" d="M125.12.05h.93V2.46h-.93Z"/><path class="cls-1" d="M197.27,108.54h-2.39v-.93h2.39Z"/><path class="cls-1" d="M171.13,2.45V.06H172V2.45Z"/><path class="cls-1" d="M194.86,38.87v-.92h2.41v.92Z"/><path class="cls-1" d="M194.87,105.36v-.92h2.4l0,.92Z"/><path class="cls-1" d="M129.23.05V2.46h-.93V.05Z"/><path class="cls-1" d="M170.41,2.46h-.89V.07l.89-.07Z"/><path class="cls-1" d="M197.28,41.11V42h-2.41v-.92Z"/><path class="cls-1" d="M194.86,100.61V99.7h2.41v.92Z"/><path class="cls-1" d="M129.9,2.47V.06h.93V2.47Z"/><path class="cls-1" d="M194.87,97.44v-.92h2.39v.92Z"/><path class="cls-1" d="M194.87,46.78v-.92h2.4l0,.92Z"/><path class="cls-1" d="M4.61,0h.92V2.46H4.61Z"/><path class="cls-1" d="M166.36.06h.9V2.45h-.9Z"/><path class="cls-1" d="M197.26,35.73h-2.39v-.94h2.39Z"/><path class="cls-1" d="M121.32.06V2.45l-.93.05V.06Z"/><path class="cls-1" d="M194.87,34.11v-.92h2.4l0,.92Z"/><path class="cls-1" d="M118.14,2.47h-.92V.06h.92Z"/><path class="cls-1" d="M115.6,2.46V.07h.93V2.46Z"/><path class="cls-1" d="M113.35,2.47h-.89V.06h.89Z"/><path class="cls-1" d="M197.27,31h-2.4V30h2.4Z"/><path class="cls-1" d="M175.2.07V2.46h-.9V.07Z"/><path class="cls-1" d="M108.6,2.46h-.9V.07h.9Z"/><path class="cls-1" d="M105.43,2.47h-.91V.06l.91-.06Z"/><path class="cls-1" d="M99.76,2.5V.06h.93V2.46Z"/><path class="cls-1" d="M96.64.06h.89v2.4h-.89Z"/><path class="cls-1" d="M95.9,2.47H95V.05h.91Z"/><path class="cls-1" d="M92.75.05v2.4h-.93V.05Z"/><path class="cls-1" d="M146.67.07V2.46h-.93V.07Z"/><path class="cls-1" d="M194.87,73.68v-.89h2.39l.07.89Z"/><path class="cls-1" d="M149.85.06V2.45l-.93.05V.06Z"/><path class="cls-1" d="M194.87,69.61h2.39v.93h-2.39Z"/><path class="cls-1" d="M150.53.06h.92V2.45h-.92Z"/><path class="cls-1" d="M197.25,68.94h-2.37V68h2.37Z"/><path class="cls-1" d="M194.86,76.85v-.91h2.4v.91Z"/><path class="cls-1" d="M194.87,78.46v-.92h2.39v.92Z"/><path class="cls-1" d="M194.86,65.79v-.92h2.41v.92Z"/><path class="cls-1" d="M154.61.07V2.46h-.91V.07Z"/><path class="cls-1" d="M141.92.08V2.45H141V.08Z"/><path class="cls-1" d="M194.86,62.62v-.91h2.41v.91Z"/><path class="cls-1" d="M197.28,80.68v.92h-2.41v-.92Z"/><path class="cls-1" d="M194.88,60.08h2.39V61h-2.39Z"/><path class="cls-1" d="M194.87,83.85h2.4l0,.92h-2.44Z"/><path class="cls-1" d="M138.75,2.47h-.91V.06h.91Z"/><path class="cls-1" d="M197.28,49v.92h-2.41V49Z"/><path class="cls-1" d="M197.28,93.37v.93h-2.41v-.93Z"/><path class="cls-1" d="M133.07,2.5V.06H134v2.4Z"/><path class="cls-1" d="M197.27,91.78v.91h-2.4l0-.91Z"/><path class="cls-1" d="M10.29,2.47H9.38V.06h.91Z"/><path class="cls-1" d="M22.1.06H23v2.4H22.1Z"/><path class="cls-1" d="M13.46.06V2.45h-.92V.06Z"/><path class="cls-1" d="M14.14,2.44V.07h.93V2.44Z"/><path class="cls-1" d="M18.24.08V2.45h-.92V.08Z"/><path class="cls-1" d="M197.28,53.78v.91h-2.4v-.91Z"/><path class="cls-1" d="M197.28,88.62v.91h-2.41v-.91Z"/><path class="cls-1" d="M161.61.06h.93V2.45h-.93Z"/><path class="cls-1" d="M197.27,57v.91h-2.4l-.05-.91Z"/><path class="cls-1" d="M136.21,0h.92V2.46h-.92Z"/><path class="cls-1" d="M158.44.05h.91v2.4h-.91Z"/><path class="cls-1" d="M197.27,85.47v.91h-2.4v-.91Z"/><path class="cls-1" d="M156.83.05h.91v2.4h-.91Z"/><path class="cls-1" d="M76,.05h.91V2.47H76Z"/><path class="cls-1" d="M74.37,2.46V.06l.92,0V2.46Z"/><path class="cls-1" d="M194.86,23v-.92h2.41V23Z"/><path class="cls-1" d="M177.44.05h.91v2.4h-.91Z"/><path class="cls-1" d="M27.76,2.46h-.91V.06h.91Z"/><path class="cls-1" d="M71.24.05h.89V2.46h-.89Z"/><path class="cls-1" d="M30,.05h.88v2.4H30Z"/><path class="cls-1" d="M69,.05v2.4h-.93V.05Z"/><path class="cls-1" d="M66.45,2.46V.07h.93V2.46Z"/><path class="cls-1" d="M64.2,2.46h-.91V.06L64.2,0Z"/><path class="cls-1" d="M58.55,0h.9V2.46h-.9Z"/><path class="cls-1" d="M194.86,19.87V19h2.4l.05.91Z"/><path class="cls-1" d="M180,2.47h-.92V.06H180Z"/><path class="cls-1" d="M55.37,2.44V.07h.93V2.44Z"/><path class="cls-1" d="M53.77.05h.91v2.4l-.91,0Z"/><path class="cls-1" d="M197.28,17.35v.92h-2.41v-.92Z"/><path class="cls-1" d="M33.15.05h.92V2.46h-.92Z"/><path class="cls-1" d="M34.76,2.45V.06h.93V2.45Z"/><path class="cls-1" d="M51.53.07V2.46h-.9V.07Z"/><path class="cls-1" d="M194.86,15.11v-.92h2.41v.92Z"/><path class="cls-1" d="M182.22.06h.92V2.45h-.92Z"/><path class="cls-1" d="M197.27,12h-2.41v-.91h2.41Z"/><path class="cls-1" d="M46.76,2.46h-.9V.07h.9Z"/><path class="cls-1" d="M197.27,9.44v.92h-2.39V9.44Z"/><path class="cls-1" d="M42.67.05h.93V2.46h-.93Z"/><path class="cls-1" d="M197.27,7.21h-2.41V6.27h2.41Z"/><path class="cls-1" d="M187,.06h.92V2.45H187Z"/><path class="cls-1" d="M197.28,3.12V4h-2.41V3.12Z"/><path class="cls-1" d="M37.92,0h.92V2.46h-.92Z"/><path class="cls-1" d="M190.15.05h.91V2.46h-.91Z"/><path class="cls-1" d="M192.66,2.46h-.91V.06l.91,0Z"/><path class="cls-1" d="M83.9,0h.92V2.46H83.9Z"/><path class="cls-1" d="M197.28,25.29v.91h-2.41v-.91Z"/><path class="cls-1" d="M25.24.05h.91v2.4l-.91.05Z"/><path class="cls-1" d="M87.06,2.46V.07H88v2.4Z"/><path class="cls-1" d="M80.08.08V2.45h-.92V.08Z"/><path class="cls-1" d="M173.61,111.66h-.87v-2.43h.87Z"/><path class="cls-1" d="M168.85,111.65H168v-2.44h.88Z"/><path class="cls-1" d="M64.89,109.21h.89v2.44h-.89Z"/><path class="cls-1" d="M99.06,111.66H98.2v-2.44h.87Z"/><path class="cls-1" d="M2.49,87.95H.05l0-.89H2.49Z"/><path class="cls-1" d="M165.68,111.66h-.87v-2.44h.87Z"/><path class="cls-1" d="M61.74,111.64v-2.42h.88v2.42Z"/><path class="cls-1" d="M163.2,109.2h.86v2.45l-.86,0Z"/><path class="cls-1" d="M160,109.21h.88v2.44H160Z"/><path class="cls-1" d="M0,91.09v-.86H2.49v.86Z"/><path class="cls-1" d="M61,111.65h-.88v-2.44H61Z"/><path class="cls-1" d="M57.84,111.66H57v-2.44l.86,0Z"/><path class="cls-1" d="M101.35,109.21h.89v2.44h-.89Z"/><path class="cls-1" d="M155.29,109.21h.87v2.44h-.87Z"/><path class="cls-1" d="M53.08,111.66h-.87v-2.44h.87Z"/><path class="cls-1" d="M91.16,109.22v2.42h-.89v-2.42Z"/><path class="cls-1" d="M193.34,109.2h.87v2.44h-.87Z"/><path class="cls-1" d="M89.54,111.66l-.86,0v-2.48l.86,0Z"/><path class="cls-1" d="M85.53,109.21h.87v2.44h-.87Z"/><path class="cls-1" d="M83.24,109.16v2.49h-.88v-2.44Z"/><path class="cls-1" d="M189.46,111.65h-.87v-2.42h.87Z"/><path class="cls-1" d="M186.3,111.65h-.89v-2.43l.89,0Z"/><path class="cls-1" d="M81.61,111.66h-.87v-2.44h.87Z"/><path class="cls-1" d="M.06,74.38H2.49v.87H.06Z"/><path class="cls-1" d="M183.8,109.21h.88v2.44h-.88Z"/><path class="cls-1" d="M77.59,109.2h.86v2.45l-.86,0Z"/><path class="cls-1" d="M180.65,109.2h.87v2.44h-.87Z"/><path class="cls-1" d="M2.5,79.15V80H.06v-.86Z"/><path class="cls-1" d="M73.69,111.66h-.87v-2.44h.87Z"/><path class="cls-1" d="M93.43,109.21h.89v2.44h-.89Z"/><path class="cls-1" d="M175.9,109.21h.85v2.45h-.85Z"/><path class="cls-1" d="M2.49,82.3v.89H.07V82.3Z"/><path class="cls-1" d="M70.53,111.66h-.87v-2.44h.87Z"/><path class="cls-1" d="M106.13,111.64v-2.43H107v2.43Z"/><path class="cls-1" d="M2.49,106.05v.89H.07v-.89Z"/><path class="cls-1" d="M37.24,109.23v2.42h-.9v-2.42Z"/><path class="cls-1" d="M3.94,111.65H3.07v-2.42h.87Z"/><path class="cls-1" d="M122.83,111.65H122v-2.44l.85-.05Z"/><path class="cls-1" d="M6.21,109.21h.88v2.44H6.21Z"/><path class="cls-1" d="M8.7,111.65H7.81v-2.42H8.7Z"/><path class="cls-1" d="M11,111.64v-2.43h.88v2.43Z"/><path class="cls-1" d="M110.14,111.66h-.85v-2.44l.85,0Z"/><path class="cls-1" d="M16.61,111.66h-.87v-2.44h.87Z"/><path class="cls-1" d="M118.81,109.2h.86v2.45l-.86,0Z"/><path class="cls-1" d="M19.78,111.65h-.87v-2.42h.87Z"/><path class="cls-1" d="M20.51,109.21h.89v2.44h-.89Z"/><path class="cls-1" d="M32.48,111.65h-.87v-2.43h.87Z"/><path class="cls-1" d="M23.66,111.66v-2.44l.88-.05v2.49Z"/><path class="cls-1" d="M114,109.21h.89v2.44H114Z"/><path class="cls-1" d="M29.33,109.22v2.42h-.89v-2.42Z"/><path class="cls-1" d="M110.9,109.2h.86v2.45l-.86,0Z"/><path class="cls-1" d="M152.13,109.21H153v2.44h-.87Z"/><path class="cls-1" d="M103,109.2h.88v2.44H103Z"/><path class="cls-1" d="M49,109.2h.88v2.44H49Z"/><path class="cls-1" d="M148.22,111.65h-.85v-2.44l.85-.05Z"/><path class="cls-1" d="M144.19,109.21h.89v2.44h-.89Z"/><path class="cls-1" d="M143.45,111.66h-.86v-2.44l.86,0Z"/><path class="cls-1" d="M48.32,111.66l-.86,0v-2.48l.86,0Z"/><path class="cls-1" d="M2.5,95v.87H.05V95Z"/><path class="cls-1" d="M139.43,109.21h.87v2.44h-.87Z"/><path class="cls-1" d="M44.31,109.21h.86v2.44h-.86Z"/><path class="cls-1" d="M2.5,98.15V99H.06v-.87Z"/><path class="cls-1" d="M135.55,109.22v2.44l-.89,0v-2.48Z"/><path class="cls-1" d="M2.48,102.16H.05v-.87H2.48Z"/><path class="cls-1" d="M0,102.89H2.49v.87H.06Z"/><path class="cls-1" d="M132.39,109.17v2.48l-.88,0v-2.48Z"/><path class="cls-1" d="M42,111.65h-.89v-2.43l.89,0Z"/><path class="cls-1" d="M40.39,111.65h-.89v-2.42h.89Z"/><path class="cls-1" d="M126.73,109.21h.89v2.44h-.89Z"/><path class="cls-1" d="M123.57,109.21h.89v2.44h-.89Z"/><path class="cls-1" d="M2.49,52.23v.87H.07v-.87Z"/><path class="cls-1" d="M0,43.57V42.7H2.49v.87Z"/><path class="cls-1" d="M.07,26.86H2.49v.9H.07Z"/><path class="cls-1" d="M.06,39.55H2.49v.87H.06Z"/><path class="cls-1" d="M.05,56.25v-.87H2.49v.87Z"/><path class="cls-1" d="M.05,21.43v-.87H2.49v.87Z"/><path class="cls-1" d="M2.54,16.69H.06L0,15.81H2.49Z"/><path class="cls-1" d="M0,45.2v-.87H2.48v.87Z"/><path class="cls-1" d="M0,29.35v-.86H2.49v.86Z"/><path class="cls-1" d="M2.49,58.54v.89H.06l0-.89Z"/><path class="cls-1" d="M0,13.52v-.87H2.48v.87Z"/><path class="cls-1" d="M2.49,51.51H.05l0-.89H2.49Z"/><path class="cls-1" d="M2.5,60.17V61H.06v-.87Z"/><path class="cls-1" d="M0,37.26V36.4H2.48v.86Z"/><path class="cls-1" d="M0,63.29H2.49l0,.88H.05Z"/><path class="cls-1" d="M2.49,7.88v.89H.06l0-.89Z"/><path class="cls-1" d="M.06,66.46H2.49v.87H.06Z"/><path class="cls-1" d="M2.48,5.61H.05V4.73H2.48Z"/><path class="cls-1" d="M2.5,34.79v.86H.07v-.86Z"/><path class="cls-1" d="M.05,32.51v-.87H2.49v.87Z"/><path class="cls-1" d="M0,24.6v-.88H2.48v.88Z"/><path class="cls-1" d="M0,72.09v-.86H2.49l0,.86Z"/><path class="cls-1" d="M2.49,48.37H.07v-.89H2.49Z"/><path class="cls-1" d="M86.4,2.46h-.88V.07h.88Z"/><path class="cls-1" d="M175.9,0h.86v2.4h-.86Z"/><path class="cls-1" d="M88.68.06h.86V2.45h-.86Z"/><path class="cls-1" d="M83.23,2.46h-.87V.07L83.23,0Z"/><path class="cls-1" d="M81.62,2.47h-.87V.06h.87Z"/><path class="cls-1" d="M90.28.06h.88V2.44h-.88Z"/><path class="cls-1" d="M93.44.06h.87V2.45l-.87,0Z"/><path class="cls-1" d="M194.87,27.75v-.89h2.38v.89Z"/><path class="cls-1" d="M99.06,2.47h-.85V.06l.85,0Z"/><path class="cls-1" d="M102.24.07V2.44h-.88V.07Z"/><path class="cls-1" d="M103,2.45V.06l.87,0V2.45Z"/><path class="cls-1" d="M194.87,29.36v-.88h2.38v.88Z"/><path class="cls-1" d="M106.13.06H107V2.44h-.88Z"/><path class="cls-1" d="M109.29.05h.85v2.4h-.85Z"/><path class="cls-1" d="M110.94.06h.84V2.45l-.84.06Z"/><path class="cls-1" d="M114.92,2.47h-.86V.06h.86Z"/><path class="cls-1" d="M197.27,32.53h-2.39l-.05-.89h2.44Z"/><path class="cls-1" d="M172.73,2.44V.07h.88V2.44Z"/><path class="cls-1" d="M36.36.06h.87V2.45l-.87,0Z"/><path class="cls-1" d="M194.23,2.47h-.87V.07h.87Z"/><path class="cls-1" d="M188.59,0h.86v2.4h-.86Z"/><path class="cls-1" d="M39.52,0h.86v2.4h-.86Z"/><path class="cls-1" d="M42,.06v2.4h-.88V.06Z"/><path class="cls-1" d="M197.28,4.73v.86h-2.41V4.73Z"/><path class="cls-1" d="M197.28,7.92v.82h-2.41l-.06-.82Z"/><path class="cls-1" d="M186.32,0V2.45l-.89,0V.06Z"/><path class="cls-1" d="M45.16,2.47H44.3V.06l.85,0Z"/><path class="cls-1" d="M183.82,0h.86v2.4h-.86Z"/><path class="cls-1" d="M194.87,13.52v-.88h2.38v.88Z"/><path class="cls-1" d="M47.45,2.45V.06h.85V2.45Z"/><path class="cls-1" d="M49.06,0h.85v2.4h-.85Z"/><path class="cls-1" d="M194.86,16.66v-.86h2.41v.86Z"/><path class="cls-1" d="M52.19,2.5V.06l.89,0V2.45Z"/><path class="cls-1" d="M180.65.06h.87V2.45l-.87,0Z"/><path class="cls-1" d="M57,2.5V.07h.89V2.46Z"/><path class="cls-1" d="M31.61,0h.85V2.46l-.85,0Z"/><path class="cls-1" d="M61,2.46h-.88V.08H61Z"/><path class="cls-1" d="M61.76,0h.85V2.46l-.85,0Z"/><path class="cls-1" d="M65.8.06V2.45l-.89.05V.06Z"/><path class="cls-1" d="M194.86,21.42v-.85h2.41l0,.85Z"/><path class="cls-1" d="M69.66.06h.88V2.44h-.88Z"/><path class="cls-1" d="M28.44.06h.88V2.44h-.88Z"/><path class="cls-1" d="M73.7,2.46h-.88V.08h.88Z"/><path class="cls-1" d="M78.45,2.47h-.86V.07h.86Z"/><path class="cls-1" d="M194.86,24.59v-.86h2.4v.86Z"/><path class="cls-1" d="M163.21,0h.85V2.46l-.85,0Z"/><path class="cls-1" d="M16.61,2.47h-.86V.06h.86Z"/><path class="cls-1" d="M197.28,52.25v.85h-2.41l0-.85Z"/><path class="cls-1" d="M11.85,2.47H11V.06l.85,0Z"/><path class="cls-1" d="M194.89,50.62h2.37v.88h-2.37Z"/><path class="cls-1" d="M7.83.06H8.7V2.46H7.83Z"/><path class="cls-1" d="M6.21.06h.88V2.44H6.21Z"/><path class="cls-1" d="M134.66.06h.88V2.44h-.88Z"/><path class="cls-1" d="M23.68.06h.87V2.45l-.87,0Z"/><path class="cls-1" d="M164.81.06h.88V2.44h-.88Z"/><path class="cls-1" d="M194.87,48.36v-.89h2.38v.89Z"/><path class="cls-1" d="M197.27,95v.87h-2.39l0-.87Z"/><path class="cls-1" d="M131.51,0h.86V2.45h-.86Z"/><path class="cls-1" d="M168.86.07V2.45H168V.07Z"/><path class="cls-1" d="M197.28,98.15V99h-2.41l0-.85Z"/><path class="cls-1" d="M197.28,44.32v.86h-2.41v-.86Z"/><path class="cls-1" d="M197.27,42.7v.87h-2.39l0-.87Z"/><path class="cls-1" d="M194.87,102.15v-.84h2.39v.84Z"/><path class="cls-1" d="M194.83,71.21h2.43v.89h-2.39Z"/><path class="cls-1" d="M147.36,2.44V.07h.88V2.44Z"/><path class="cls-1" d="M153,2.46h-.87V.06H153Z"/><path class="cls-1" d="M197.27,74.38v.88h-2.38v-.88Z"/><path class="cls-1" d="M145.08,2.46h-.88V.08h.88Z"/><path class="cls-1" d="M197.27,67.34h-2.39v-.88h2.39Z"/><path class="cls-1" d="M143.42,2.47h-.82V.07l.82-.07Z"/><path class="cls-1" d="M197.28,63.31v.85h-2.4v-.85Z"/><path class="cls-1" d="M194.86,80v-.86h2.4V80Z"/><path class="cls-1" d="M155.29,0h.85V2.46l-.85,0Z"/><path class="cls-1" d="M194.87,82.3h2.4v.88h-2.4Z"/><path class="cls-1" d="M139.43.06h.87V2.46h-.87Z"/><path class="cls-1" d="M197.27,58.54v.87h-2.39l0-.87Z"/><path class="cls-1" d="M18.9,2.44V.07h.88V2.44Z"/><path class="cls-1" d="M20.51,2.45V.06l.87,0V2.45Z"/><path class="cls-1" d="M197.31,87.94h-2.43v-.87h2.39Z"/><path class="cls-1" d="M160,0h.86v2.4H160Z"/><path class="cls-1" d="M194.86,56.26V55.4h2.39v.87Z"/><path class="cls-1" d="M197.27,90.21v.89h-2.38v-.89Z"/><path class="cls-1" d="M119.69.06V2.45h-.88V.06Z"/><path class="cls-1" d="M122.85,2.46H122V.07h.89Z"/><path class="cls-1" d="M124.46,2.46h-.88V.08h.88Z"/><path class="cls-1" d="M194.86,37.26v-.85h2.41l0,.85Z"/><path class="cls-1" d="M4,.06V2.45l-.89.05V.06Z"/><path class="cls-1" d="M127.63.07V2.44h-.88V.07Z"/><path class="cls-1" d="M194.83,106h2.43l0,.89h-2.43Z"/><path class="cls-1" d="M197.27,103.78h-2.4v-.88h2.4Z"/><path class="cls-1" d="M197.28,39.6v.82h-2.41l-.06-.82Z"/><path class="cls-1" d="M125.31,20.36l.08-.86,2.13.17-.08.87Z"/><path class="cls-1" d="M174.38,26.64l-2-.46v-.9l2,.46Z"/><path class="cls-1" d="M42.08,26.09l-2.08.4-.18-.85,2.09-.4Z"/><path class="cls-1" d="M40.13,27.11l2.08-.39.08.86L40.22,28Z"/><path class="cls-1" d="M41.2,22.27l.34.84-2.1.4-.34-.81Z"/><path class="cls-1" d="M41.64,23.75l.19.84L39.71,25l-.18-.87Z"/><path class="cls-1" d="M138.23,20.16l-.12-.89,2.12.24.11.88Z"/><path class="cls-1" d="M125.19,21.84l.07-.83,2.13.17-.08.85Z"/><path class="cls-1" d="M72.63,22l-.08-.86,2.1-.19.12.86Z"/><path class="cls-1" d="M105.53,16.32V15.5h2.11v.82Z"/><path class="cls-1" d="M172.84,34.07l-2-.49.17-.86,2,.48Z"/><path class="cls-1" d="M137.54,25.29l2.1.25.13.87-2.06-.21Z"/><path class="cls-1" d="M173.19,31.69l-.06.9-2-.47v-.89Z"/><path class="cls-1" d="M157.54,32.33l.15-.87,2.05.4-.15.86Z"/><path class="cls-1" d="M159.4,25l.2-.85,2.06.41-.12.85Z"/><path class="cls-1" d="M170.42,35.07l.19-.85,2,.47-.17.85Z"/><path class="cls-1" d="M170.21,35.66l2.05.48-.37.81-2-.47Z"/><path class="cls-1" d="M74.5,18.79,72.38,19l-.22-.85,2.11-.18Z"/><path class="cls-1" d="M29.21,36.51,29,35.67l2-.49.24.85Z"/><path class="cls-1" d="M139.49,28.58l-.13.85-2.06-.24.11-.87Z"/><path class="cls-1" d="M28.86,35l-.19-.85,2-.48.21.85Z"/><path class="cls-1" d="M161.42,26l-.19.84-2.06-.39.12-.87Z"/><path class="cls-1" d="M138.95,30.92l-2-.26.25-.84,2.07.24Z"/><path class="cls-1" d="M62.88,29.71l.11.87-2.05.24L60.79,30Z"/><path class="cls-1" d="M60.72,29.32l-.09-.85,2.06-.27.11.88Z"/><path class="cls-1" d="M137.49,27.71l.08-.88,2,.24v.85Z"/><path class="cls-1" d="M93.62,24.6l2.07-.09v.88h-2Z"/><path class="cls-1" d="M95.58,19.33h-2v-.78l2-.09Z"/><path class="cls-1" d="M72.44,19.61l2.09-.16.13.84-2.14.19Z"/><path class="cls-1" d="M93.67,26.89v-.77l2-.1v.86Z"/><path class="cls-1" d="M100.82,22.14v-.76h2.06v.76Z"/><path class="cls-1" d="M72.71,23.49v-.86l2-.18v.87Z"/><path class="cls-1" d="M126.37,27.18l-.06.86-2-.15V27Z"/><path class="cls-1" d="M39.83,29.53l.32-.88,1.9-.36C42,29.27,41.27,29.42,39.83,29.53Z"/><path class="cls-1" d="M72.12,25l.44-.87,1.9-.16C74.23,25,73.58,25,72.12,25Z"/><path class="cls-1" d="M31.58,37.44l-2,.47-.19-.78,2-.47Z"/><path class="cls-1" d="M95.6,20.06v.71l-2,.11v-.82Z"/><path class="cls-1" d="M139.36,24.87l-1.91-.24-.54-.87A2.29,2.29,0,0,1,139.36,24.87Z"/><path class="cls-1" d="M63.07,31.22l0,.79-2,.22L61,31.47Z"/><path class="cls-1" d="M73.64,17.34l-1.78.17L71,16.71a3.38,3.38,0,0,1,2.66.46Z"/><path class="cls-1" d="M170.62,29.6A2.38,2.38,0,0,1,172.88,31l-1.82-.4Z"/><path class="cls-1" d="M138,21.59l.11-.76a3.64,3.64,0,0,1,.39,0l1.64.21C140.19,21.61,139.1,21.88,138,21.59Z"/><path class="cls-1" d="M139.83,18.77a4.39,4.39,0,0,1-.46,0L138,18.58l-.64-.87A2.85,2.85,0,0,1,139.83,18.77Z"/><path class="cls-1" d="M70.45,27.42c1-.17,1.87-.37,2.55.51A2.08,2.08,0,0,1,70.45,27.42Z"/><path class="cls-1" d="M172,27.55l.19-.76,2,.47C174.1,27.86,172.9,28,172,27.55Z"/><path class="cls-1" d="M38.74,22.1l-.84-.63a2.64,2.64,0,0,1,2.72.28Z"/><path class="cls-1" d="M174,25l-1.8-.42-.63-1.05C172.61,23.82,173.5,24,174,25Z"/><path class="cls-1" d="M74.88,29.35c-1.43.29-1.62.25-2.41-.51A1.75,1.75,0,0,1,74.88,29.35Z"/><path class="cls-1" d="M65.31,95.08V93.93h1.17v1.16Z"/><path class="cls-1" d="M105.41,29.87v-.68h2v.68Z"/><path class="cls-1" d="M74.33,30.13c.91-.14,1.75-.42,2.4.42A1.94,1.94,0,0,1,74.33,30.13Z"/><path class="cls-1" d="M60.41,27.21l2.09-.27.14.62-2,.27Z"/><path class="cls-1" d="M168.56,37.64l.89-.6,1.88.44A3.45,3.45,0,0,1,168.56,37.64Z"/><path class="cls-1" d="M28.52,33.57l-.12-.62,2-.46.17.6Z"/><path class="cls-1" d="M138.25,31.48a2.84,2.84,0,0,1-2.5.44l.78-.67Z"/><path class="cls-1" d="M107.44,28.45h-2l0-.54h2.05Z"/><path class="cls-1" d="M68.83,26.28,70.36,26l.74.53C70,27,69.39,26.91,68.83,26.28Z"/><path class="cls-1" d="M102.9,23.12c-.53.4-1.17.12-1.76.17-.12,0-.25-.16-.37-.25l.07-.14h2Z"/><path class="cls-1" d="M105.55,17.09h2.19c-.18.2-.26.37-.35.37a4.1,4.1,0,0,1-1.87-.12Z"/><path class="cls-1" d="M61.8,20.57l.06.86-2.06.28-.17-.86Z"/><path class="cls-1" d="M60,23.19l-.14-.85,2.1-.27.15.87Z"/><path class="cls-1" d="M62.17,23.84c-.58.39-1.3.24-2,.41L60,23.83l2.08-.24Z"/><path class="cls-1" d="M29,26.23l.2.86-2.09.48-.21-.84Z"/><path class="cls-1" d="M27.23,28.21l2.09-.5.23.85-2.07.49Z"/><path class="cls-1" d="M29.72,29.38a2.45,2.45,0,0,1-2.23.33l2.18-.5Z"/></g></g></svg>