<svg xmlns="http://www.w3.org/2000/svg" viewBox="0 0 167.09 53.72"><defs><style>.cls-1{fill:#353535;}</style></defs><title>Asset 1</title><g id="Layer_2" data-name="Layer 2"><g id="Layer_1-2" data-name="Layer 1"><path class="cls-1" d="M23.15,19.47c-3.19-4.38-4.42-6-6.9-7.26,3.39-1,5.41-3.23,5.41-5.93C21.66,3.41,20,0,11.89,0H0V1.14H0c2.58.26,3.82.54,3.82,4V18.68c0,3.54-1.24,3.82-3.82,4.07H0V23.9H12.18V22.76h0c-2.59-.25-3.83-.53-3.83-4.07v-5.5h2c1.66,0,3.09,0,6,4,3.44,4.69,3.89,5.26,5.24,6.67v0h7.17V22.76h-.13c-2.12-.18-3.29-.28-5.49-3.28M17,6.47c0,3.61-1.89,5.44-5.63,5.44H8.32V1.15H12c3.27,0,5,1.84,5,5.32"/><path class="cls-1" d="M58.91,1h0c2.88.24,3.89.65,3.89,4.2V17.8c-1.38,1.88-3.46,4.71-7.62,4.71a5.92,5.92,0,0,1-4.95-2.91c-.74-1.35-1.06-3.17-1.06-6.08V5.16c0-3.48,1.26-3.75,3.89-4h0V0H41V1.14h0c2.63.26,3.89.53,3.89,4v9.47a11,11,0,0,0,1.13,5.76c.76,1.23,3.06,4.07,8.07,4.07s6.91-2.52,8.69-4.78V23.9h8.38V22.76h0c-2.63-.26-3.89-.54-3.89-4.07V5.16c0-3.48,1.26-3.75,3.89-4h0V0H58.91Z"/><path class="cls-1" d="M114.46,2.5C110.9,0,107.65,0,104.21,0H91.26V1.14h0c2.63.26,3.89.53,3.89,4V18.68c0,3.57-1.19,3.83-3.89,4.07h0V23.9h12.95c2,0,6.31,0,9.75-2.13A11.56,11.56,0,0,0,119.4,12a11.68,11.68,0,0,0-4.94-9.45M99.58,1.15h4.63c6.34,0,10.12,4.16,10.12,11.12,0,9.47-7.38,10.49-10.55,10.49-4,0-4.2-1-4.2-4Z"/><path class="cls-1" d="M162.15,2.5C158.59,0,155.34,0,151.91,0H139V1.14h0c2.62.26,3.89.53,3.89,4V18.68c0,3.57-1.19,3.83-3.89,4.07h0V23.9h13c2,0,6.31,0,9.74-2.13a11.55,11.55,0,0,0,.5-19.27M147.27,1.15h4.63C158.24,1.15,162,5.3,162,12.26c0,9.47-7.38,10.49-10.55,10.49-4,0-4.2-1-4.2-4Z"/><polygon class="cls-1" points="121.53 51.28 45.62 51.28 45.62 51.9 63.67 51.9 63.67 53.72 103.46 53.72 103.46 51.9 121.53 51.9 121.53 51.28"/></g></g></svg>