<svg xmlns="http://www.w3.org/2000/svg" viewBox="0 0 25.53 25.79"><defs><style>.cls-1{fill:#353535;}.cls-2{fill:#d2c0ac;}</style></defs><title>cta-hover</title><g id="Layer_2" data-name="Layer 2"><g id="Layer_1-2" data-name="Layer 1"><path class="cls-1" d="M25.49,12c0-.15,0-.31,0-.49l-.08-.58c0-.21-.06-.44-.11-.67l-.19-.75A12.64,12.64,0,0,0,14.27.09c-.27,0-.54,0-.81-.06L13,0h-.43a12.54,12.54,0,0,0-1.69.14,12.22,12.22,0,0,0-3.35,1l-.8.39c-.27.13-.52.31-.77.46l-.39.24-.36.27c-.24.19-.49.36-.72.56A13.75,13.75,0,0,0,2.08,5.79,13.79,13.79,0,0,0,.52,9.19,14.14,14.14,0,0,0,0,12.91a14.08,14.08,0,0,0,.59,3.71A13.63,13.63,0,0,0,2.18,20,14.06,14.06,0,0,0,4.61,22.7c.23.2.48.37.72.55l.36.27.38.24c.26.15.5.33.76.46l.79.4a12.44,12.44,0,0,0,3.32,1,12.32,12.32,0,0,0,1.67.16H13l.41,0c.27,0,.55,0,.82-.05l.8-.12c.13,0,.27,0,.39-.07l.39-.1.76-.19.73-.27A13.24,13.24,0,0,0,20,23.61a12.82,12.82,0,0,0,5.12-7.3l.19-.75c.05-.24.07-.47.11-.68l.09-.58c0-.18,0-.34,0-.49l0-.9Z"/><path class="cls-2" d="M17.56,12.11,12.89,7.45c-.71-.71-2.64.07-2.64,1.08v8.19c0,.91,1.34,2.27,3.18.25l4.12-3.41A1,1,0,0,0,17.56,12.11Zm-1.52.6-3.9,3.9a.32.32,0,0,1-.55-.23V8.93c0-.64.53-.36.62-.26L16,12.5A.15.15,0,0,1,16,12.72Z"/></g></g></svg>