<?xml version="1.0" encoding="utf-8"?>
<!-- Generator: Adobe Illustrator 16.0.0, SVG Export Plug-In . SVG Version: 6.00 Build 0)  -->
<!DOCTYPE svg PUBLIC "-//W3C//DTD SVG 1.1//EN" "http://www.w3.org/Graphics/SVG/1.1/DTD/svg11.dtd">
<svg version="1.1" id="Layer_1" xmlns="http://www.w3.org/2000/svg" xmlns:xlink="http://www.w3.org/1999/xlink" x="0px" y="0px"
	 width="612px" height="792px" viewBox="0 0 612 792" enable-background="new 0 0 612 792" xml:space="preserve">
<title>Asset 7</title>
<g id="Layer_2">
	<g id="Layer_1-2">
		<path d="M611.041,374.545c0-3.596,0-7.432,0-11.747l-1.918-13.903c0-5.034-1.438-10.548-2.637-16.061l-4.555-17.979
			C570.638,192.909,467.197,103.019,342.077,89.041c-6.472,0-12.944,0-19.417-1.438l-11.026-0.719h-10.068
			c-13.564,0.211-27.099,1.333-40.513,3.356c-27.777,4.107-54.822,12.18-80.305,23.972l-19.178,9.349
			c-6.472,3.116-12.465,7.431-18.458,11.027l-9.349,5.753l-8.63,6.472c-5.753,4.555-11.746,8.63-17.26,13.424
			c-22.16,19.139-41.669,41.147-58.012,65.443c-16.112,25.342-28.693,52.763-37.396,81.504C4.357,336.222,0.165,366.212,0,396.359
			c0.724,30.144,5.48,60.055,14.144,88.936c8.929,28.628,21.754,55.893,38.115,81.024c16.541,24,36.121,45.755,58.251,64.725
			c5.514,4.794,11.507,8.869,17.26,13.184l8.63,6.473l9.109,5.753c6.233,3.597,11.986,7.911,18.219,11.027l18.938,9.589
			c25.284,11.655,52.071,19.724,79.586,23.972c13.243,2.181,26.617,3.462,40.033,3.836h9.35h9.828c6.473,0,13.185,0,19.657-1.199
			l19.177-2.876c3.116,0,6.473,0,9.35-1.679l9.349-2.396l18.219-4.555l17.499-6.473c22.761-8.435,44.478-19.453,64.724-32.842
			c60.518-41.781,104.062-103.864,122.736-174.994l4.555-17.979c1.198-5.753,1.678-11.267,2.637-16.301l2.157-13.903
			c0-4.315,0-8.15,0-11.746v-21.575L611.041,374.545z M415.432,649.502c-85.58,34.279-226.534,14.144-292.457-54.416
			c-75.032-76.71-93.25-162.289-73.114-267.046c18.698-99.003,81.265-152.461,173.076-189.857
			c70.478-28.766,220.78-28.047,263.69,54.416C637.649,307.185,584.672,581.661,415.432,649.502z"/>
		<path d="M420.944,377.182L308.996,265.474c-17.02-17.02-63.285,1.678-63.285,25.89v196.329c0,21.814,32.122,54.416,76.23,5.993
			l98.764-81.744c9.661-9.052,10.155-24.222,1.104-33.883C421.528,377.759,421.24,377.467,420.944,377.182z M384.508,391.565
			l-93.49,93.49c-2.944,3.046-7.801,3.128-10.847,0.185c-1.541-1.49-2.389-3.556-2.338-5.698v-178.59
			c0-15.342,12.705-8.63,14.863-6.232l90.853,91.812c1.456,1.35,1.542,3.625,0.192,5.082c-0.062,0.066-0.126,0.13-0.192,0.192
			L384.508,391.565z"/>
	</g>
</g>
<path fill="#353535" d="M611.749,375.111c-0.233-3.484-0.14-7.437-0.726-11.719c-0.631-4.279-1.31-8.898-2.035-13.949
	c-0.843-5.007-1.356-10.49-2.572-16.175c-1.403-5.67-2.9-11.659-4.489-18.032c-7.111-25.073-17.52-55.652-37.634-86.455
	c-19.692-30.803-47.385-62.799-84.924-88.575c-37.61-25.459-84.13-44.684-136.496-50.823c-6.525-1.029-12.887-0.876-19.39-1.333
	l-9.777-0.525l-4.911-0.27c-2.198-0.023-3.46,0.117-5.286,0.199c-13.309,0.784-26.945,0.714-40.428,3.344
	c-27.247,3.24-54.214,11.882-80.305,23.096c-6.419,3.112-12.828,6.246-19.273,9.356c-6.396,3.215-12.337,7.355-18.57,11.038
	l-9.238,5.685c-2.946,2.105-5.825,4.327-8.725,6.49c-5.718,4.479-11.776,8.596-17.308,13.391
	c-22.3,18.991-41.888,41.433-58.611,66.096c-16.208,25.071-28.523,52.694-37.457,81.428c-8.362,28.839-12,59.453-12.409,89.039
	c1.006,30.382,5.204,60.156,14.069,88.856c9.238,28.439,21.81,55.686,38.193,80.293c16.816,24.253,35.996,46.659,58.133,65.439
	c5.483,4.748,11.471,8.819,17.143,13.262l8.619,6.457l9.1,5.705c6.162,3.648,12.009,7.861,18.324,11.063
	c6.375,3.183,12.701,6.34,19.016,9.497c25.845,11.248,52.355,20.206,79.637,23.81c13.579,2.808,26.827,2.876,39.973,3.812
	c1.752,0.093,3.063,0.235,5.145,0.235l4.982-0.235l9.894-0.466c6.572-0.421,13.167-0.213,19.576-1.217
	c6.455-0.982,12.839-1.94,19.178-2.876c3.157-0.54,6.34-0.796,9.448-1.568c3.089-0.773,6.176-1.521,9.239-2.316
	c6.129-1.565,12.209-3.109,18.244-4.607c5.918-1.965,11.647-4.303,17.399-6.384c23.062-8.351,43.646-20.278,62.706-32.486
	c37.586-25.612,65.301-57.632,84.993-88.364c20.139-30.778,30.524-61.419,37.656-86.466c1.591-6.34,3.09-12.328,4.539-18.009
	c1.216-5.686,1.729-11.158,2.548-16.187c0.75-5.029,1.451-9.708,2.06-13.965c0.608-4.255,0.491-8.185,0.724-11.67
	c0.632-13.985,0.984-21.448,0.984-21.448S612.356,389.098,611.749,375.111"/>
<path fill="#D2C0AC" d="M421.313,377.404l-111.844-111.81c-17.051-17.051-63.22,1.674-63.22,25.798V487.61
	c0,21.799,31.996,54.401,76.271,6.036l98.793-81.604C430.833,402.476,430.833,386.969,421.313,377.404 M384.897,391.81
	l-93.509,93.508c-4.876,4.889-13.262,1.427-13.262-5.495V301.108c0-15.248,12.63-8.594,14.923-6.291l91.848,91.848
	C386.301,388.069,386.301,390.408,384.897,391.81"/>
</svg>
