<svg xmlns="http://www.w3.org/2000/svg" viewBox="0 0 479.56 479.56"><defs><style>.cls-1{fill:#353535;}</style></defs><title>cta</title><g id="Layer_2" data-name="Layer 2"><g id="Layer_1-2" data-name="Layer 1"><path class="cls-1" d="M240.36,0C108.57-.72.77,106.56,0,239.19-.76,371,106.61,478.85,239.18,479.55c131.79.7,239.75-106.73,240.38-239.2C480.18,108.48,373,.73,240.36,0Zm0,459c-120.7.45-219.24-97.91-219.81-219.4C20,120.41,118.81,21,238.35,20.53,359.73,20.06,458.5,118.12,459,239.62,459.55,359.47,360.77,458.58,240.34,459Z"/><path class="cls-1" d="M359,227.5q-88-48.31-175.88-96.66a49.56,49.56,0,0,0-7.25-2.86c-10.13.13-15.9,6.24-15.9,15.31q0,96.22,0,192.44c0,13.24,10.95,19.72,22.71,13.26Q270.89,300.58,359,252c5.05-2.78,8.59-6.56,8.48-12.5C367.37,233.85,363.91,230.17,359,227.5Zm-38.15,19.86Q259.71,281.16,198.55,315c-8.16,4.51-15.76,0-15.76-9.26q0-67.15,0-134.3c0-6.33,4-10.59,11-10.68a34.28,34.28,0,0,1,5,2q61.05,33.69,122.06,67.46c3.38,1.87,5.78,4.43,5.86,8.4C326.85,242.77,324.4,245.42,320.89,247.35Z"/></g></g></svg>