<?xml version="1.0" encoding="utf-8"?>
<!-- Generator: Adobe Illustrator 19.1.0, SVG Export Plug-In . SVG Version: 6.00 Build 0)  -->
<svg version="1.1" id="Layer_1" xmlns="http://www.w3.org/2000/svg" xmlns:xlink="http://www.w3.org/1999/xlink" x="0px" y="0px"
	 viewBox="0 0 612 792" style="enable-background:new 0 0 612 792;" xml:space="preserve">
<style type="text/css">
	.st0{fill:#353635;}
</style>
<g>
	<path class="st0" d="M306.6,156.2C174.8,155.5,67,262.8,66.2,395.4c-0.8,131.8,106.6,239.7,239.2,240.4
		c131.8,0.7,239.7-106.7,240.4-239.2C546.4,264.7,439.2,157,306.6,156.2z M306.6,615.3c-120.7,0.5-219.2-97.9-219.8-219.4
		C86.2,276.6,185,177.2,304.6,176.7c121.4-0.5,220.2,97.6,220.7,219.1C525.8,515.7,427,614.8,306.6,615.3z"/>
	<path class="st0" d="M425.3,383.7c-58.6-32.2-117.2-64.5-175.9-96.7c-2.7-1.5-5.8-2.3-7.3-2.9c-10.1,0.1-15.9,6.2-15.9,15.3
		c0,64.1,0,128.3,0,192.4c0,13.2,10.9,19.7,22.7,13.3c58.8-32.3,117.5-64.7,176.3-97c5.1-2.8,8.6-6.6,8.5-12.5
		C433.6,390.1,430.1,386.4,425.3,383.7z M387.1,403.6c-40.8,22.5-81.5,45.1-122.3,67.7c-8.2,4.5-15.8,0-15.8-9.3
		c0-44.8,0-89.5,0-134.3c0-6.3,4-10.6,11-10.7c1,0.4,3.2,1,5,2c40.7,22.5,81.4,45,122.1,67.5c3.4,1.9,5.8,4.4,5.9,8.4
		C393.1,399,390.6,401.6,387.1,403.6z"/>
</g>
</svg>
