<?xml version="1.0" encoding="utf-8"?>
<!-- Generator: Adobe Illustrator 19.1.0, SVG Export Plug-In . SVG Version: 6.00 Build 0)  -->
<svg version="1.1" id="Layer_1" xmlns="http://www.w3.org/2000/svg" xmlns:xlink="http://www.w3.org/1999/xlink" x="0px" y="0px"
	 viewBox="590 -500 1792 1792" style="enable-background:new 590 -500 1792 1792;" xml:space="preserve">
<style type="text/css">
	.st0{fill:#FFFFFF;}
</style>
<path class="st0" d="M1067,642c0-8.7,2.9-16.3,8.7-23l390.4-456c5.8-6.7,12.4-10,19.9-10s14.1,3.3,19.9,10l393.4,456
	c5.8,6.7,8.7,14.3,8.7,23s-2.9-16.7-8.7-10l-33.3,31c-5.8,6.7-12.4,10-19.9,10c-7.5,0-14.1-3.3-19.9-10L1486,280l-340.2,383
	c-5.8,6.7-12.4,10-19.9,10c-7.5,0-14.1-3.3-19.9-10l-30.3-31C1069.9,625.3,1067,650.7,1067,642z"/>
</svg>
