<svg xmlns="http://www.w3.org/2000/svg" viewBox="0 0 360.95 35.45"><defs><style>.cls-1{fill:#fbf3e8;}.cls-2{fill:none;stroke:#fbf3e8;stroke-miterlimit:10;stroke-width:1.22px;}</style></defs><title>Asset 5</title><g id="Layer_2" data-name="Layer 2"><g id="Layer_1-2" data-name="Layer 1"><path class="cls-1" d="M188.79.64h-1V3.31h-.57V.64h-1V.12h2.65Zm4.64,2.67h-.56V.51h-.09l-1.08,2h-.36L190.26.48h-.12V3.31h-.55V.12h1.07l.87,1.74L192.4.12h1Z"/><path class="cls-1" d="M14.64,5c-.51-2.31-1.63-3.56-3.7-3.56H9.28C9.13,3,9.1,5.05,9.1,8.12c0,4.72.17,6.86.4,7a11.06,11.06,0,0,0,2.05.38c.23.06.17.37,0,.37-.82-.07-2.62-.1-4.15-.1s-3,0-3.77.1c-.14,0-.22-.3,0-.37a12.29,12.29,0,0,0,2.11-.38c.24-.14.4-2.28.4-7,0-3.06,0-5-.16-6.66H4.68A4.11,4.11,0,0,0,.47,4.85C.4,5.05,0,5,0,4.89.1,3.59.47,1.15.47.34.5.1.82.1.95.18c.58.43,2.34.64,6.83.64,5,0,6.25-.17,6.8-.64.1-.11.49-.08.49.17,0,1,.07,3.5.07,4.71,0,.14-.41.18-.48,0"/><path class="cls-1" d="M35.58,15.87c-1.67-.07-1.42-.1-4.75-.1-3.14,0-6.8,0-8,.1-.25,0-.25-.31,0-.37a9.15,9.15,0,0,0,1.87-.38c.23-.13.36-2.17.36-6.89s-.13-6.86-.36-7A14.12,14.12,0,0,0,22.84.88c-.25-.07-.25-.41,0-.38,1.19.07,4.27.1,7.41.1C33.58.6,34.46.5,35,.5a37.77,37.77,0,0,1,.3,4.08c0,.21-.4.21-.44.1a4.6,4.6,0,0,0-1.49-2.47,4.07,4.07,0,0,0-2.76-.92,5.26,5.26,0,0,0-2.28.28c-.22.13-.4,2.27-.4,5.26,0,.41.06.54.24.66s.24.13,1.47.13a2.68,2.68,0,0,0,1.9-.48,2.69,2.69,0,0,0,.77-1.67c0-.24.44-.17.44,0-.06.81-.09,1.39-.09,2.44s0,1.74.09,2.56c0,.12-.37.19-.44,0a3.35,3.35,0,0,0-.92-1.69,2.94,2.94,0,0,0-1.76-.41c-1.19,0-1.33,0-1.47.1s-.24.27-.24.67c0,3.57.18,5.61.4,5.72a7.53,7.53,0,0,0,2.76.3,3.84,3.84,0,0,0,2.92-1,7.09,7.09,0,0,0,1.69-3.23c.07-.14.51-.09.44.09-.13.51-.44,4.79-.6,4.9"/><path class="cls-1" d="M55.56,15.76c-1.63,0-3.29,0-4.15.1-.14,0-.19-.3,0-.37a17.52,17.52,0,0,0,2-.31c.34-.17.31-.57-.74-3.81a6.29,6.29,0,0,1-.28-.78H50.3c-1.6,0-2.62,0-3.27.07C46,13.28,45.78,14,45.78,14.47s0,.82,1.53,1c.26,0,.2.37.07.37-.86-.07-1.51-.1-2.18-.1a26.35,26.35,0,0,0-2.68.1c-.14,0-.21-.34,0-.37a2.36,2.36,0,0,0,1.67-1C45.13,13.33,46.15,11,50.5.18c.1-.25.78-.21.85,0C56.41,13,56.92,14.54,57.6,15a6.11,6.11,0,0,0,1.69.52c.28.06.21.37,0,.37-.81-.07-3.11-.1-3.77-.1M49.92,4.11a.11.11,0,0,0-.21,0c-1,2.45-1.79,4.37-2.36,5.78.67,0,1.55,0,3,0h1.94C51.49,8,50.56,5.67,49.92,4.11"/><path class="cls-1" d="M78.36,15.87c-1.66-.07-2.07-.1-4.86-.1s-6.69,0-7.87.1c-.17,0-.21-.31,0-.37a9.17,9.17,0,0,0,1.87-.38c.23-.13.37-2.17.37-6.89s-.15-6.86-.37-7A14.18,14.18,0,0,0,65.67.88c-.24-.07-.21-.41,0-.38.78.07,2.2.1,3.73.1s3,0,3.73-.1c.18,0,.22.31,0,.38a13.75,13.75,0,0,0-1.84.34c-.23.14-.37,2.32-.37,7s.11,6.41.34,6.52a8.2,8.2,0,0,0,2.76.34,4.1,4.1,0,0,0,2.77-1,6.38,6.38,0,0,0,1.68-3.16c0-.11.51-.07.44.1-.13.51-.3,4.75-.48,4.86"/><path class="cls-1" d="M98.93,15.87c-1.67-.07-1.43-.1-4.75-.1-3.13,0-6.79,0-8,.1-.23,0-.23-.31,0-.37A8.73,8.73,0,0,0,88,15.12c.24-.13.39-2.17.39-6.89s-.15-6.86-.39-7A13.27,13.27,0,0,0,86.18.88C86,.81,86,.47,86.18.5c1.2.07,4.28.1,7.4.1,3.33,0,4.21-.1,4.8-.1a37.12,37.12,0,0,1,.3,4.08c0,.21-.41.21-.45.1a4.51,4.51,0,0,0-1.49-2.47A4,4,0,0,0,94,1.29a5.2,5.2,0,0,0-2.28.28c-.24.13-.41,2.27-.41,5.26,0,.41.06.54.24.66s.24.13,1.47.13a2.6,2.6,0,0,0,1.89-.48,2.58,2.58,0,0,0,.78-1.67c0-.24.44-.17.44,0-.06.81-.1,1.39-.1,2.44s0,1.74.1,2.56c0,.12-.37.19-.44,0a3.26,3.26,0,0,0-.92-1.69A2.87,2.87,0,0,0,93,8.29c-1.19,0-1.32,0-1.47.1s-.24.27-.24.67c0,3.57.17,5.61.41,5.72a7.36,7.36,0,0,0,2.74.3,3.85,3.85,0,0,0,2.93-1,7.16,7.16,0,0,0,1.7-3.23c.07-.14.51-.09.44.09-.14.51-.44,4.79-.62,4.9"/><path class="cls-1" d="M118.91,15.76c-1.62,0-3.29,0-4.15.1-.14,0-.2-.3,0-.37a18.44,18.44,0,0,0,2.05-.31c.33-.17.3-.57-.77-3.81a6,6,0,0,1-.26-.78h-2.17c-1.6,0-2.61,0-3.27.07-1.06,2.62-1.26,3.37-1.26,3.8s0,.82,1.53,1c.27,0,.2.37.06.37-.85-.07-1.49-.1-2.16-.1a26.38,26.38,0,0,0-2.68.1c-.15,0-.2-.34,0-.37a2.38,2.38,0,0,0,1.65-1c.93-1.18,1.95-3.46,6.29-14.33.1-.25.78-.21.85,0C119.76,13,120.28,14.54,121,15a6.08,6.08,0,0,0,1.69.52c.28.06.2.37,0,.37-.81-.07-3.12-.1-3.77-.1M113.27,4.11a.11.11,0,0,0-.21,0c-1,2.45-1.8,4.37-2.38,5.78.68,0,1.57,0,3,0h1.93c-.75-1.94-1.67-4.25-2.31-5.81"/><path class="cls-1" d="M143.29.88a2.56,2.56,0,0,0-1.84,1c-.84,1.12-1.92,3.57-6.19,14.34-.09.2-.77.2-.84,0-5-12.27-5.91-14.41-6.6-14.85a5.46,5.46,0,0,0-1.67-.51c-.26-.07-.2-.38-.06-.38.85.07,3,.1,3.65.1,1.63,0,3.35,0,4.2-.1.14,0,.21.31,0,.38a16.6,16.6,0,0,0-1.73.34c-.38.2-.41.61.82,4,.68,1.87,2,5.29,2.78,7,0,.1.17.07.21,0,3.29-8,3.84-9.72,3.84-10.37s0-.8-1.57-1c-.27,0-.2-.38-.06-.38.84.07,1.65.1,2.34.1,1.33,0,2,0,2.78-.1.18,0,.23.34,0,.38"/><path class="cls-1" d="M162.53,15.87c-1.68-.07-1.42-.1-4.76-.1-3.13,0-6.8,0-8,.1-.24,0-.24-.31,0-.37a8.74,8.74,0,0,0,1.86-.38c.25-.13.38-2.17.38-6.89s-.13-6.86-.38-7a13.3,13.3,0,0,0-1.86-.34c-.24-.07-.24-.41,0-.38,1.18.07,4.29.1,7.4.1,3.35,0,4.22-.1,4.8-.1a38.93,38.93,0,0,1,.3,4.08c0,.21-.4.21-.44.1a4.54,4.54,0,0,0-1.49-2.47,4.05,4.05,0,0,0-2.75-.92,5.2,5.2,0,0,0-2.28.28c-.23.13-.41,2.27-.41,5.26,0,.41.07.54.24.66s.24.13,1.46.13a2.69,2.69,0,0,0,1.91-.48,2.65,2.65,0,0,0,.77-1.67c0-.24.45-.17.45,0a22.12,22.12,0,0,0-.11,2.44,25.34,25.34,0,0,0,.11,2.56c0,.12-.37.19-.45,0a3.26,3.26,0,0,0-.91-1.69,3,3,0,0,0-1.77-.41c-1.18,0-1.33,0-1.46.1s-.24.27-.24.67c0,3.57.18,5.61.41,5.72a7.42,7.42,0,0,0,2.76.3,3.84,3.84,0,0,0,2.92-1,7.06,7.06,0,0,0,1.7-3.23c.08-.14.51-.09.44.09-.13.51-.44,4.79-.61,4.9"/><path class="cls-1" d="M176,16.24A8.8,8.8,0,0,1,171.5,15c-.23-.14-.06-2.86-.2-4.18,0-.21.3-.21.34-.07.75,3,2.65,4.76,4.92,4.76a2.56,2.56,0,0,0,2.63-2.75c0-4.15-7.29-3.4-7.29-8.22,0-2.52,2.39-4.49,5.27-4.49a8.12,8.12,0,0,1,3.43.61c.3.14.13,2.41.2,3.43,0,.24-.26.2-.33.1-1-2.41-2.21-3.43-3.67-3.43a2.2,2.2,0,0,0-2.35,2.41c0,3.7,7.35,3.2,7.35,8.5,0,2-1.95,4.52-5.78,4.52"/><line class="cls-2" x1="215.19" y1="13.88" x2="226.58" y2="2.49"/><line class="cls-2" x1="215.19" y1="2.49" x2="226.58" y2="13.88"/><path class="cls-1" d="M266.33,12.93c-2.1-2.88-2.9-4-4.53-4.77,2.23-.67,3.55-2.12,3.55-3.9S264.24.13,258.93.13h-7.81V.88h0c1.7.17,2.51.35,2.51,2.63v8.89c0,2.33-.82,2.51-2.51,2.68h0v.75h8v-.75h0c-1.7-.17-2.51-.35-2.51-2.68V8.79h1.32c1.09,0,2,0,4,2.65a36.57,36.57,0,0,0,3.44,4.39H270v-.75h-.08c-1.4-.12-2.16-.19-3.61-2.16m-4-8.55c0,2.37-1.25,3.58-3.7,3.58h-2V.89H259c2.15,0,3.29,1.21,3.29,3.5"/><path class="cls-1" d="M289.84.76h0c1.9.16,2.56.42,2.56,2.76v8.31c-.91,1.24-2.27,3.1-5,3.1A3.89,3.89,0,0,1,284.16,13a8.28,8.28,0,0,1-.69-4V3.52c0-2.28.83-2.47,2.56-2.64h0V.13h-8V.88h0c1.72.17,2.56.35,2.56,2.64V9.75a7.22,7.22,0,0,0,.74,3.78,6,6,0,0,0,5.31,2.68c3.21,0,4.54-1.65,5.71-3.14v2.77h5.51v-.75h0c-1.73-.17-2.56-.35-2.56-2.68V3.52c0-2.28.83-2.47,2.56-2.64h0V.13h-8.09Z"/><path class="cls-1" d="M326.36,1.77C324,.13,321.88.13,319.62.13h-8.51V.88h0c1.73.17,2.56.35,2.56,2.64v8.89c0,2.35-.78,2.52-2.56,2.68h0v.75h8.51a12.25,12.25,0,0,0,6.41-1.4A7.6,7.6,0,0,0,329.61,8a7.68,7.68,0,0,0-3.25-6.21M316.57.89h3c4.17,0,6.65,2.73,6.65,7.31,0,6.22-4.85,6.9-6.94,6.9-2.62,0-2.76-.68-2.76-2.63Z"/><path class="cls-1" d="M357.7,1.77C355.36.13,353.23.13,351,.13h-8.51V.88h0c1.72.17,2.56.35,2.56,2.64v8.89c0,2.35-.78,2.52-2.56,2.68h0v.75H351a12.24,12.24,0,0,0,6.41-1.4A7.6,7.6,0,0,0,361,8a7.68,7.68,0,0,0-3.25-6.21M347.92.89h3c4.16,0,6.65,2.73,6.65,7.31,0,6.22-4.85,6.9-6.94,6.9-2.63,0-2.76-.68-2.76-2.63Z"/><polygon class="cls-1" points="331.01 33.84 281.11 33.84 281.11 34.24 292.97 34.24 292.97 35.45 319.13 35.45 319.13 34.24 331.01 34.24 331.01 33.84"/></g></g></svg>