<?xml version="1.0" standalone="no"?>
<!DOCTYPE svg PUBLIC "-//W3C//DTD SVG 20010904//EN"
 "http://www.w3.org/TR/2001/REC-SVG-20010904/DTD/svg10.dtd">
<svg version="1.0" xmlns="http://www.w3.org/2000/svg"
 width="16.000000pt" height="16.000000pt" viewBox="0 0 16.000000 16.000000"
 preserveAspectRatio="xMidYMid meet">
<metadata>
Created by potrace 1.11, written by Peter Selinger 2001-2013
</metadata>
<g transform="translate(0.000000,16.000000) scale(0.007273,-0.007273)"
fill="#000000" stroke="none">
<path d="M926 2012 c-4 -3 -88 -7 -189 -9 -382 -7 -404 -8 -420 -21 -11 -9
-21 -10 -34 -4 -10 5 -26 8 -35 7 -10 -2 -20 1 -24 6 -3 5 -10 6 -16 3 -6 -4
-27 -7 -47 -8 -35 -1 -36 -2 -34 -38 1 -23 -5 -42 -14 -50 -14 -11 -15 -9 -9
20 3 17 9 47 12 64 6 27 4 31 -7 21 -8 -6 -27 -13 -43 -15 -38 -4 -45 -25 -12
-34 38 -9 32 -24 -10 -24 -39 0 -39 -1 -21 -77 3 -13 2 -23 -3 -23 -18 0 -6
-85 16 -112 13 -16 25 -49 29 -80 4 -29 12 -61 17 -71 7 -14 5 -22 -6 -30 -8
-7 -16 -19 -18 -27 -2 -8 -10 -20 -18 -27 -10 -7 -16 -30 -18 -62 -2 -40 2
-52 17 -60 10 -6 21 -23 24 -38 4 -15 9 -39 13 -53 l6 -25 -20 25 c-25 30 -34
23 -37 -30 -2 -44 18 -66 36 -39 6 10 8 6 5 -11 -3 -14 -5 -38 -6 -55 -1 -28
-2 -28 -12 -10 -16 29 -16 29 -31 13 -10 -9 -13 -29 -10 -59 5 -58 12 -155 18
-254 7 -118 10 -138 23 -162 7 -12 14 -55 15 -95 2 -40 9 -86 15 -101 9 -22 9
-35 -3 -64 -20 -48 -19 -80 3 -87 14 -5 17 -14 14 -36 -3 -24 0 -31 19 -39 13
-4 29 -7 34 -5 14 5 73 15 113 18 18 1 40 -3 50 -10 23 -18 47 -17 82 1 25 13
30 13 44 0 13 -13 19 -10 51 22 33 33 41 36 105 39 57 3 68 1 64 -11 -4 -10 3
-16 23 -20 15 -3 36 -11 47 -16 22 -13 79 8 72 26 -8 21 11 40 26 27 8 -6 34
-11 58 -11 87 -1 376 8 425 13 77 9 86 9 148 1 43 -6 57 -11 53 -21 -3 -8 -2
-14 2 -15 4 0 58 -2 120 -4 93 -3 114 -1 119 11 3 8 -3 24 -13 35 -18 20 -18
20 12 4 45 -23 58 -19 77 26 17 38 17 45 3 79 -13 32 -13 45 -2 87 14 52 10
68 -24 108 -12 13 -15 27 -10 40 7 18 8 17 15 -8 5 -18 13 -27 23 -25 14 3 16
18 15 98 -2 135 -7 208 -16 217 -10 9 -27 -16 -27 -41 0 -11 -3 -17 -6 -13
-11 11 -17 161 -13 328 2 94 4 106 19 102 12 -3 19 3 23 19 10 34 8 76 -2 82
-12 8 -32 -18 -34 -43 -1 -12 -5 -17 -10 -12 -12 12 -2 41 28 75 35 40 36 73
9 204 -3 16 -10 22 -19 18 -12 -4 -15 5 -16 42 -1 26 -2 58 -3 72 0 14 -9 36
-18 50 -24 33 -23 45 7 68 32 25 31 28 -5 62 -28 26 -76 38 -115 30 -5 -1 -14
-1 -20 0 -19 4 -176 0 -210 -6 -19 -3 -45 0 -57 7 -23 12 -57 13 -153 3 -27
-3 -54 -5 -60 -5 -34 2 -174 19 -192 24 -11 3 -24 3 -27 -1z m744 -76 c0 -19
-44 -28 -74 -15 -30 14 -24 37 12 41 33 5 62 -8 62 -26z m-1300 4 c0 -5 -7
-10 -16 -10 -8 0 -12 5 -9 10 3 6 10 10 16 10 5 0 9 -4 9 -10z m53 3 c-7 -2
-19 -2 -25 0 -7 3 -2 5 12 5 14 0 19 -2 13 -5z m1217 -84 c0 -6 -4 -7 -10 -4
-5 3 -10 11 -10 16 0 6 5 7 10 4 6 -3 10 -11 10 -16z m-1430 -4 c14 -16 5 -35
-16 -35 -8 0 -14 -4 -14 -10 0 -13 -37 -13 -44 -1 -4 5 -2 20 3 33 10 27 52
35 71 13z m585 -61 c110 -12 140 -12 146 -3 3 6 24 10 45 9 33 -2 128 -2 184
1 83 4 180 -28 180 -59 0 -10 12 -34 26 -55 18 -27 23 -44 18 -60 -5 -12 -7
-26 -5 -32 8 -28 7 -82 -1 -107 -7 -20 -5 -46 7 -93 11 -45 13 -70 6 -83 -5
-10 -8 -32 -6 -48 6 -37 -14 -63 -51 -67 -65 -8 -71 4 -75 128 -1 28 -10 67
-20 89 -13 27 -16 44 -9 57 16 29 12 56 -14 94 -14 20 -26 40 -28 46 -4 12
-55 20 -80 13 -10 -3 -18 -14 -18 -25 0 -11 -5 -29 -11 -40 -8 -16 -13 -18
-25 -8 -18 14 -18 39 1 62 17 24 9 47 -17 47 -38 0 -52 -60 -54 -235 -1 -88
-5 -185 -8 -216 -4 -37 -2 -66 6 -84 10 -23 10 -29 -4 -39 -12 -9 -18 -34 -22
-94 -3 -45 -2 -83 2 -86 7 -4 7 -31 1 -134 -2 -45 1 -57 22 -77 31 -32 82 -41
184 -35 39 3 121 -22 141 -42 9 -9 18 -28 19 -43 2 -14 9 -32 15 -40 9 -11 9
-15 1 -15 -6 0 -11 4 -11 9 0 14 -42 21 -62 10 -28 -15 -49 5 -42 40 7 32 -9
48 -54 57 -24 5 -33 2 -38 -9 -7 -20 26 -66 49 -67 22 0 22 -27 0 -38 -17 -8
-29 -8 -108 3 -143 21 -218 21 -276 1 -25 -9 -46 -11 -49 -6 -10 16 -84 18
-125 3 -79 -28 -122 7 -101 82 10 34 16 41 41 43 17 2 35 8 42 13 7 6 13 6 17
1 3 -6 32 -8 63 -5 79 6 84 6 118 -1 46 -10 55 2 56 80 1 38 8 82 16 98 12 23
12 30 2 36 -6 5 -12 23 -11 40 0 18 -7 44 -16 58 -17 27 -17 28 0 49 14 18 13
138 -2 208 -16 71 -15 81 10 117 21 28 20 50 -3 95 -10 18 -15 57 -14 112 0
94 -11 112 -64 106 -15 -2 -31 0 -34 6 -15 23 -114 -11 -116 -40 -2 -30 2 -46
18 -58 23 -18 11 -35 -27 -40 -18 -2 -35 -5 -38 -7 -2 -3 -6 -31 -8 -63 -2
-32 -6 -63 -8 -69 -3 -6 2 -24 11 -40 15 -30 12 -74 -7 -97 -6 -6 -19 -22 -29
-35 -16 -19 -25 -22 -60 -16 -26 4 -47 15 -56 28 -18 25 -20 77 -3 94 11 11
19 126 22 318 1 88 2 92 31 116 44 37 70 48 96 43 48 -10 121 -7 132 4 7 7 21
9 32 5 11 -3 34 -8 50 -10z m283 -358 c3 -12 -1 -17 -10 -14 -7 3 -15 13 -16
22 -3 12 1 17 10 14 7 -3 15 -13 16 -22z m-1010 -388 l2 -43 -15 28 c-8 15
-12 34 -8 42 10 28 20 15 21 -27z m1730 -313 c-2 -44 -14 -41 -23 6 -2 12 -10
27 -16 35 -10 12 -8 17 7 29 17 12 20 11 26 -6 4 -11 7 -40 6 -64z m-95 -231
c3 -4 2 -15 -4 -26 -7 -14 -19 -18 -41 -16 -39 4 -51 28 -14 28 13 0 28 5 31
10 7 11 19 13 28 4z m-1469 -130 c22 -9 10 -24 -20 -24 -23 0 -31 10 -17 23 8
9 17 9 37 1z m146 -58 c0 -2 -7 -7 -16 -10 -8 -3 -12 -2 -9 4 6 10 25 14 25 6z"/>
<path d="M1795 1887 c-8 -41 2 -80 18 -74 14 5 11 87 -3 101 -5 5 -11 -6 -15
-27z"/>
<path d="M8 1678 c-5 -12 -3 -107 2 -118 1 -3 2 -8 2 -12 -2 -14 27 -16 38 -2
9 10 10 21 2 41 -6 16 -13 45 -17 66 -6 37 -19 48 -27 25z"/>
<path d="M1856 1421 c-4 -7 -5 -15 -2 -18 9 -9 19 4 14 18 -4 11 -6 11 -12 0z"/>
<path d="M1927 312 c-25 -5 -21 -22 6 -22 21 0 23 -5 22 -37 -1 -21 0 -44 3
-50 7 -22 24 -14 22 10 -5 58 0 77 20 77 11 0 20 4 20 9 0 9 -64 18 -93 13z"/>
<path d="M2055 311 c-4 -8 -9 -84 -6 -108 0 -7 6 -13 11 -13 6 0 10 24 10 53
l1 52 19 -37 c11 -20 24 -39 28 -42 5 -3 19 13 31 34 12 22 24 40 25 40 2 0 2
-22 1 -50 -2 -35 2 -50 10 -50 9 0 13 18 13 60 -1 55 -3 60 -23 60 -14 0 -27
-11 -37 -32 l-17 -33 -12 32 c-12 30 -44 50 -54 34z"/>
</g>
</svg>
